<svg xmlns="http://www.w3.org/2000/svg" viewBox="0 0 300 300"><g fill="#373737"><path d="M130.5 277.8H97.2l-.3-.3-74.3-74.3v-33.3l107.9 107.9zm-32.4-2.1h27.4L24.7 175v27.4l73.4 73.3zm104.7 2.1h-33.3l107.9-107.9v33.3l-74.6 74.6zm-28.3-2.1h27.4l73.4-73.4V175L174.5 275.7zM22.6 130.1V97.7l74.6-74.6h32.4l-107 107zm2.1-31.5V125l99.8-99.8H98.1L24.7 98.6zm252.7 31.5l-107-107h32.4l.3.3 74.3 74.3v32.4zm-102-104.9l99.8 99.8V98.6l-73.4-73.4h-26.4z"/><path d="M124.5 271.7H99.8l-.3-.3-70.8-70.8v-24.7l95.8 95.8zm-23.9-2.1h18.8L30.8 181v18.8l69.8 69.8zm99.6 2.1h-24.7l95.8-95.8v24.7l-.3.4-70.8 70.7zm-19.6-2.1h18.8l69.8-69.8V181l-88.6 88.6zM28.7 124v-23.8l71.1-71h23.8L28.7 124zm2.1-22.9V119l87.7-87.7h-17.8l-69.9 69.8zM271.3 124l-94.9-94.8h23.8l.3.3 70.8 70.7V124zm-89.8-92.7l87.7 87.7v-17.9l-69.8-69.8h-17.9z"/><path d="M35.4 117.3V103l.3-.3 66.8-66.8h14.3l-81.4 81.4zm2.1-13.5v8.4l74.3-74.3h-8.4l-65.9 65.9zM117.8 265h-15.2l-.3-.3-66.8-66.8v-15.3l82.3 82.4zm-14.4-2.1h9.3l-75.2-75.2v9.3l65.9 65.9zm161.2-145.6l-81.5-81.5h14.4l.3.3 66.8 66.8v14.4zm-76.4-79.4l74.3 74.3v-8.4l-65.9-65.9h-8.4zm9.3 227.1h-15.3l82.4-82.4v15.3l-.3.3-66.8 66.8zm-10.2-2.1h9.3l65.9-65.9v-9.3l-75.2 75.2z"/><path d="M277.4 127.3l-6.1-6.1-6.8-6.8L185.9 36 150 0l-23.1 23.1-6.1 6.1L114 36l-78.5 78.5-6.8 6.8-6.1 6.1L0 150l35.5 35.5L115 265l12.9 12.9L150 300l114.5-114.5 6.8-6.8 6.1-6.1L300 150l-22.6-22.7zm-105.7 48.6c0 12.9-3.4 23.2-14 29.9-10.6 6.6-26.4 6-34.8 12.6l-1-1c4.6-4.1 11-7 14.8-13.4 3.8-6.6 3.9-13.6 3.9-23.9v-50.5c0-5.5-2.4-7.4-7.4-7.4l-.6-1.1c21.2 0 39-6.8 39-6.8v61.6zm-15.8-66.2c-10.8 0-15.9-5.7-15.9-13.4 0-7.8 5.2-13.8 15.9-13.8 10.8 0 16.1 6 16.1 13.8 0 7.6-5.3 13.4-16.1 13.4z"/></g></svg>