<svg xmlns="http://www.w3.org/2000/svg" viewBox="0 0 300 300"><path fill="#EF5154" d="M129.9 275.3H97.3l-.3-.3-72.8-72.8v-32.6l105.7 105.7zm-31.8-2.1h26.8l-98.7-98.7v26.8l71.9 71.9zm102.5 2.1H168l105.7-105.7v32.6l-73.1 73.1zm-27.7-2.1h26.8l71.9-71.9v-26.8l-98.7 98.7zM24.2 130.5V98.8l.3-.3 72.8-72.8H129L24.2 130.5zm2-30.8v25.9L124 27.8H98.1L26.2 99.7zm247.5 30.8l-14.2-14.2-90.6-90.5h31.7l.3.3 72.8 72.8v31.6zM173.9 27.8l97.8 97.8V99.7l-71.9-71.9h-25.9z"/><path fill="#EF5154" d="M123.9 269.3H99.7l-.3-.3-69.3-69.3v-24.2l93.8 93.8zm-23.3-2H119l-86.8-86.8v18.4l68.4 68.4zm97.6 2H174l93.8-93.8v24.2l-69.6 69.6zm-19.3-2h18.4l68.4-68.4v-18.4l-86.8 86.8zM30.1 124.6v-23.3l.3-.3 69.3-69.3H123l-92.9 92.9zm2.1-22.5v17.5l85.9-85.9h-17.5l-68.4 68.4zm235.6 22.5l-92.9-92.9h23.3l69.6 69.6v23.3zm-88-90.9l85.9 85.9v-17.5l-68.4-68.4h-17.5z"/><path fill="#EF5154" d="M36.7 118v-14l65.8-65.8h14L36.7 118zm2-13.2v8.2l72.8-72.8h-8.2l-64.6 64.6zm78.7 158h-14.9l-.3-.3L36.7 197v-15l80.7 80.8zm-14.1-2.1h9.1L38.7 187v9.1l64.6 64.6zM261.2 118l-79.8-79.8h14.1l.3.3 65.5 65.5v14zm-74.9-77.7l72.8 72.8v-8.2l-64.6-64.6h-8.2zm9.1 222.5h-15l80.7-80.7v15l-65.7 65.7zm-9.9-2.1h9.1l64.6-64.6V187l-73.7 73.7z"/><path fill="#EF5154" d="M276.2 127.4l-6.1-6.1-6.7-6.7-78.5-78.5-36-36-23.1 23.1-6.1 6.1L113 36l-78.5 78.5-6.7 6.7-6.1 6.1L-1 150.1l35.5 35.5 79.4 79.4 12.9 12.9 22.2 22.2 114.5-114.5 6.7-6.7 6.1-6.1 22.6-22.6-22.7-22.8zM170.6 176c0 12.9-3.4 23.2-14 29.9-10.6 6.6-26.4 6-34.8 12.6l-1-1c4.6-4.1 11-7 14.8-13.4 3.8-6.6 3.9-13.6 3.9-23.9v-50.4c0-5.4-2.4-7.4-7.4-7.4l-.6-1.1c21.2 0 39-6.8 39-6.8V176zm-15.8-66.3c-10.8 0-15.9-5.7-15.9-13.4 0-7.8 5.2-13.8 15.9-13.8 10.8 0 16.1 6 16.1 13.8 0 7.7-5.3 13.4-16.1 13.4z"/></svg>