<svg xmlns="http://www.w3.org/2000/svg" viewBox="0 0 300 300"><path fill="#FFF" d="M131.3 277H98.1l-.3-.3-74.1-74.1v-33.2L131.3 277zm-32.4-2.1h27.3L25.8 174.4v27.3l73.1 73.2zm104.4 2.1H170l107.6-107.6v33.2L203.3 277zm-28.2-2.1h27.3l73.2-73.2v-27.3L175.1 274.9zM23.7 129.7V97.4L98.1 23h32.3L23.7 129.7zm2.1-31.4v26.4l99.5-99.5H98.9L25.8 98.3zm251.8 31.4L171 23h32.3l.3.3 74.1 74.1v32.3zM176 25.1l99.5 99.5V98.3l-73.2-73.2H176z"/><path fill="#FFF" d="M125.2 270.9h-24.6l-.3-.3-70.5-70.5v-24.7l95.4 95.5zm-23.8-2.1h18.7l-88.3-88.4v18.7l69.6 69.7zm99.3 2.1H176l95.5-95.5v24.7l-70.8 70.8zm-19.6-2.1h18.7l69.6-69.6v-18.7l-88.3 88.3zM29.7 123.6V99.9l70.9-70.8h23.7l-94.6 94.5zm2.1-22.8v17.8l87.4-87.4h-17.8l-69.6 69.6zm239.8 22.8l-8.5-8.5-86.1-86h23.7l.3.3 70.5 70.5v23.7zm-89.5-92.4l87.4 87.4v-17.8l-69.6-69.6h-17.8z"/><path fill="#FFF" d="M36.4 117v-14.3l.3-.3 66.6-66.6h14.3L36.4 117zm2.1-13.5v8.4l74.1-74.1h-8.4l-65.7 65.7zm80 160.8h-15.2l-.3-.3-66.6-66.6v-15.2l82.1 82.1zm-14.3-2.1h9.3l-75-75v9.3l65.7 65.7zM264.9 117l-81.3-81.2H198l.3.3 66.6 66.6V117zm-76.2-79.2l74.1 74.1v-8.4l-65.7-65.7h-8.4zm9.3 226.5h-15.2l82.2-82.2v15.2l-67 67zm-10.2-2.1h9.3l65.7-65.7v-9.3l-75 75z"/><path fill="#FFF" d="M277.6 127l-6.1-6.1-6.7-6.7-78.3-78.3L150.6 0l-23 23-6.1 6.1-6.7 6.7-78.3 78.3-6.7 6.7-6.1 6.1-22.6 22.6 35.4 35.4 79.2 79.2 12.8 12.8 22.1 22.1 114.2-114.2 6.7-6.7 6.1-6.1 22.6-22.6-22.6-22.4zm-105.3 48.4c0 12.8-3.3 23.1-13.9 29.8-10.6 6.5-26.3 6-34.7 12.5l-1-1c4.6-4 11-7 14.8-13.4 3.8-6.5 3.9-13.5 3.9-23.8v-50.3c0-5.4-2.4-7.4-7.4-7.4l-.6-1.1c21.2 0 38.9-6.8 38.9-6.8v61.5zm-15.8-66.1c-10.7 0-15.9-5.7-15.9-13.4 0-7.8 5.2-13.8 15.9-13.8s16 6 16 13.8c.1 7.7-5.2 13.4-16 13.4z"/></svg>