<svg fill="#FFF" xmlns="http://www.w3.org/2000/svg" viewBox="0 0 65 65"><path d="M46.9 14.2h-3V10h-1.5v4.2h-3.7v1.5h4.6l-4 3.9-4-3.9h1.2V1H35v13.2h-3.3l7.6 7.6zm-4.5-7.7h1.5V8h-1.5zm0-3h1.5V5h-1.5zM27 8.6h1.5v1.5H27zm0-6h1.5v1.5H27zm0 3h1.5v1.5H27z"/><path d="M31.5 20.8h-3v-8.6H27v8.6h-3.6v1.5h4.5l-4 4-3.9-4h1.2V.1h-1.5v20.7h-3.4l7.6 7.6zm28.4 11.6H44.1l-4.4 9.5-4.4-9.5H5.1l5.3 11.4v21.1h44.1V43.8l5.4-11.4zm-14.8 1.5h12.5l-4.2 9H40.9l4.2-9zm-10.8 0l4.2 9H11.7l-4.2-9h26.8zm4.6 29.5h-27v-19h27v19zm14.2 0H40.4v-19H53v19z"/><path d="M21.5 59.8H23v1.5h-1.5zm-7 0H16v1.5h-1.5zm3.5 0h1.5v1.5H18z"/></svg>