<svg fill="#FFF" xmlns="http://www.w3.org/2000/svg" viewBox="0 0 75 75"><style>.st0{fill:#fff}.st1{stroke:#fff;stroke-width:1.5;stroke-miterlimit:10}.st2{fill:none}</style><path class="st2" d="M16.9 22.9l20.5 19.4 20.5-19.4z"/><path d="M59.8 21.4H15c-.4 0-.8.3-.8.8v16.5c0 .4.3.8.8.8s.8-.3.8-.8V23.9l14 13.3-3.3 3.7H12.2c-.4 0-.8.3-.8.8s.3.8.8.8h14.6c.2 0 .4-.1.6-.3l3.4-3.9 6 5.7c.1.1.3.2.5.2s.4-.1.5-.2l5.7-5.4 11.2 10.6c.1.1.3.2.5.2s.4-.1.5-.2c.3-.3.3-.8 0-1.1l-11-10.6L59 23.9v28.3H15.8v-2.7h8c.4 0 .8-.3.8-.8s-.3-.8-.8-.8h-8.7c-.4 0-.8.3-.8.8v4.2c0 .4.3.8.8.8h44.8c.4 0 .8-.3.8-.8V22.1c-.2-.4-.5-.7-.9-.7zM37.4 42.3L16.9 22.9h41L37.4 42.3z"/><path d="M29.2 46.7c-.2.3-.2.8.2 1 .1.1.3.1.4.1.2 0 .5-.1.6-.3l1.5-2.1c.2-.3.2-.6 0-.9l-1.5-1.9c-.3-.3-.7-.4-1.1-.1-.3.3-.4.7-.1 1.1l.6.8H9.2c-.4 0-.8.3-.8.8s.3.8.8.8h20.6l-.6.7z"/></svg>