<svg fill="#FFF" xmlns="http://www.w3.org/2000/svg" viewBox="0 0 128 128"><path d="M116.4 23c.4 0 .8-.3.8-.8V9.7c0-.4-.3-.8-.8-.8-.4 0-.8.3-.8.8v12.6c0 .4.3.7.8.7zm0 10.4c.4 0 .8-.3.8-.8v-4.5c0-.4-.3-.8-.8-.8-.4 0-.8.3-.8.8v4.5c0 .5.3.8.8.8zM1.3 58.3c-.4 0-.8.3-.8.8v12.6c0 .4.3.8.8.8.4-.2.7-.5.7-.9V59c0-.4-.3-.7-.7-.7zm0 18.4c-.4 0-.8.3-.8.8V82c0 .4.3.8.8.8.4-.1.7-.4.7-.8v-4.5c0-.4-.3-.8-.7-.8zm29.5-49.1c0 2.4 1.9 4.3 4.3 4.3s4.3-1.9 4.3-4.3-1.9-4.3-4.3-4.3c-2.4.1-4.3 2-4.3 4.3zm4.3-2.7c1.5 0 2.8 1.2 2.8 2.8s-1.2 2.8-2.8 2.8c-1.5 0-2.8-1.2-2.8-2.8s1.2-2.8 2.8-2.8zM80.4 118c-2.4 0-4.3 1.9-4.3 4.3s1.9 4.3 4.3 4.3 4.3-1.9 4.3-4.3-1.9-4.3-4.3-4.3zm0 7c-1.5 0-2.8-1.2-2.8-2.8 0-1.5 1.2-2.8 2.8-2.8 1.5 0 2.8 1.2 2.8 2.8 0 1.6-1.3 2.8-2.8 2.8zM18.2 6.2c0 .4.3.8.8.8h14.3c.4 0 .8-.3.8-.8 0-.4-.3-.8-.8-.8H19c-.4 0-.8.4-.8.8zm-8.5.7h4.6c.4 0 .8-.3.8-.8 0-.4-.3-.8-.8-.8H9.7c-.4 0-.8.3-.8.8s.4.8.8.8zm0-4.9h10c.4 0 .8-.3.8-.8s-.3-.8-.8-.8h-10c-.4 0-.8.3-.8.8s.4.8.8.8zm14.2 0h3.2c.4 0 .8-.3.8-.8s-.3-.8-.8-.8h-3.2c-.4 0-.8.3-.8.8s.4.8.8.8zm90.4 118.9c0-.4-.3-.8-.8-.8H99.3c-.4 0-.8.3-.8.8 0 .4.3.8.8.8h14.3c.4-.1.7-.4.7-.8zm8.6-.8h-4.6c-.4 0-.8.3-.8.8 0 .4.3.8.8.8h4.6c.4 0 .8-.3.8-.8s-.4-.8-.8-.8zm0 4.9h-10c-.4 0-.8.3-.8.8 0 .4.3.8.8.8h10c.4 0 .8-.3.8-.8 0-.4-.4-.8-.8-.8zm-14.3 0h-3.2c-.4 0-.8.3-.8.8 0 .4.3.8.8.8h3.2c.4 0 .8-.3.8-.8 0-.4-.3-.8-.8-.8zM96.6 6.9c.1.1.3.2.5.2s.4-.1.5-.2c.3-.3.3-.8 0-1.1L95.8 4c-.3-.3-.8-.3-1.1 0-.3.3-.3.8 0 1.1l1.9 1.8zm6.1 6.2c.1.1.3.2.5.2s.4-.1.5-.2c.3-.3.3-.8 0-1.1l-1.9-1.9c-.3-.3-.8-.3-1.1 0-.3.3-.3.8 0 1.1l2 1.9zm-7.4.2c.2 0 .4-.1.5-.2l1.9-1.9c.3-.3.3-.8 0-1.1-.3-.3-.8-.3-1.1 0L94.7 12c-.3.3-.3.8 0 1.1.2.1.4.2.6.2zm6.1-6.1c.2 0 .4-.1.5-.2l1.9-1.9c.3-.3.3-.8 0-1.1-.3-.3-.8-.3-1.1 0l-1.9 1.9c-.3.3-.3.8 0 1.1.2.1.4.2.6.2zM1.8 17.7c-.3-.3-.8-.3-1.1 0-.3.3-.3.8 0 1.1l1.9 1.9c.1.1.3.2.5.2s.4-.1.5-.2c.3-.3.3-.8 0-1.1l-1.8-1.9zM9.2 27c.2 0 .4-.1.5-.2.3-.3.3-.8 0-1.1l-1.9-1.9c-.3-.3-.8-.3-1.1 0-.3.3-.3.8 0 1.1l1.9 1.9c.3.2.5.2.6.2zm-6.6-3.1L.7 25.8c-.3.3-.3.8 0 1.1.2.1.4.1.6.1s.4-.1.5-.2l1.9-1.9c.3-.3.3-.8 0-1.1-.3-.2-.8-.2-1.1.1zm4.8-3c.2 0 .4-.1.5-.2l1.9-1.9c.3-.3.3-.8 0-1.1-.3-.3-.8-.3-1.1 0l-1.9 1.9c-.3.3-.3.8 0 1.1.2.2.4.2.6.2zm18.2 97.3c-.3-.3-.8-.3-1.1 0-.3.3-.3.8 0 1.1l1.9 1.9c.1.1.3.2.5.2s.4-.1.5-.2c.3-.3.3-.8 0-1.1l-1.8-1.9zm6.1 6.1c-.3-.3-.8-.3-1.1 0-.3.3-.3.8 0 1.1l1.9 1.9c.1.1.3.2.5.2s.4-.1.5-.2c.3-.3.3-.8 0-1.1l-1.8-1.9zm-5.3 0l-1.9 1.9c-.3.3-.3.8 0 1.1.1.1.3.2.5.2s.4-.1.5-.2l1.9-1.9c.3-.3.3-.8 0-1.1-.2-.3-.7-.3-1 0zm6.1-6.1l-1.9 1.9c-.3.3-.3.8 0 1.1.1.1.3.2.5.2s.4-.1.5-.2l1.9-1.9c.3-.3.3-.8 0-1.1-.2-.3-.7-.3-1 0z"/><path d="M127.5 113.1V45.5c0-.2 0-.4-.2-.6-.1-.1-.2-.2-.3-.2H84.8V13.8C84.8 6.5 78.9.5 71.6.5c-7.3 0-13.2 6-13.2 13.3v36.8c0 2.4.9 4.7 2.6 6.4 1.7 1.7 4 2.6 6.4 2.6 2.4 0 4.7-.9 6.4-2.6 1.7-1.7 2.6-4 2.6-6.4V14.9c0-.4-.3-.8-.8-.8-.4 0-.8.3-.8.8v35.6c0 2-.8 3.9-2.2 5.3-1.4 1.4-3.3 2.2-5.3 2.2s-3.9-.8-5.3-2.2c-1.4-1.4-2.2-3.3-2.2-5.3V13.8C59.7 7.3 65 2 71.4 2c6.5 0 11.7 5.3 11.7 11.8v36.8c0 4.3-1.7 8.3-4.7 11.3s-7 4.7-11.3 4.7c-4.3 0-8.3-1.7-11.3-4.7s-4.7-7-4.7-11.3V14.9c0-.4-.3-.8-.8-.8-.4 0-.8.3-.8.8v29.7H7.3c-.1 0-.2.1-.3.2-.2.2-.2.4-.2.6v67.9c0 .1.1.1.1.1s0 .1.1.1c.1.1.1.1.2.1s.2.1.3.1h119.1c.1 0 .2 0 .3-.1h.1c.1 0 .1-.1.2-.1 0 0 0-.1.1-.1l.1-.1c.1-.1.1-.1.1-.2zM8.4 47.1l36.4 31.5-36.4 32.7V47.1zM46 79.5l18 15.6c.9.8 2.1 1.2 3.2 1.2s2.3-.4 3.2-1.2l2.1-1.8 3.3 8.5c.1.3.4.5.7.5.3 0 .6-.2.7-.4l2.6-5.4 13.2 13c.1.1.3.2.5.2s.4-.1.5-.2l5.8-5.8c.1-.1.2-.3.2-.5s-.1-.4-.2-.5L86.7 89.6l4.8-2.3c.3-.1.4-.4.4-.7V86c0-.3-.2-.6-.5-.7l-6.7-2.6 3.7-3.2 36.3 32.7H9.6L46 79.5zm43.9 6.8l-4.8 2.4c-.2.1-.4.3-.4.6 0 .2 0 .5.2.7l13.3 13.3-4.7 4.7-13.3-13.4c-.1-.1-.3-.2-.5-.2h-.1c-.2 0-.4.2-.6.4l-2.4 4.8-8.5-21.8 21.8 8.5zm-.3-7.8L126 47.1v64.3L89.6 78.5zM54.8 63c3.3 3.3 7.7 5.1 12.4 5.1s9.1-1.8 12.4-5.1c3.3-3.3 5.1-7.7 5.1-12.4v-4.4h40L83.2 82.1l-16.1-6.3c-.3-.1-.6 0-.8.2-.2.2-.3.5-.2.8l5.9 15-2.6 2.2c-1.3 1.1-3.2 1.1-4.4 0L9.7 46.2h40v4.4c0 4.7 1.8 9.1 5.1 12.4z"/></svg>