<svg fill="#FFF" xmlns="http://www.w3.org/2000/svg" viewBox="206 206 100 100"><path d="M292.386 285.707h-2.506c.198-.437.313-.92.313-1.431v-41.904a3.48 3.48 0 0 0-3.476-3.475h-8.943v-12.265h7.496v-1.022c0-4.695-3.821-8.516-8.518-8.516h-34.613c-4.697 0-8.518 3.82-8.518 8.516v13.287h-8.432a3.478 3.478 0 0 0-3.475 3.475v41.904c0 .511.113.994.312 1.431h-2.411a3.479 3.479 0 0 0-3.475 3.476v2.248a3.48 3.48 0 0 0 3.475 3.476h72.771a3.48 3.48 0 0 0 3.475-3.476v-2.248a3.479 3.479 0 0 0-3.475-3.476zm-14.612-39.758h5.366v34.75h-5.366v-34.75zm-1.022-26.811c3.222 0 5.901 2.365 6.394 5.45h-32.552a8.513 8.513 0 0 0-2.929-5.45h29.087zm-34.613 0a6.48 6.48 0 0 1 6.472 6.472v1.022h27.119v54.067h-40.064V225.61a6.478 6.478 0 0 1 6.473-6.472zm-8.518 61.561h-4.855v-34.75h4.855v34.75zm-9.863 3.577v-41.904c0-.789.642-1.431 1.431-1.431h8.432v2.964h-6.899v38.838h58.461v-38.838h-7.41v-2.964h8.943c.789 0 1.431.642 1.431 1.431v41.904c0 .789-.642 1.431-1.431 1.431h-22.025c-.02 0-.039.005-.059.006a.825.825 0 0 0-.202.033 1.221 1.221 0 0 0-.098.03 1.372 1.372 0 0 0-.178.087c-.027.018-.053.036-.079.056s-.052.04-.077.063c-.025.024-.05.05-.073.077-.014.016-.028.027-.041.044l-2.156 2.772h-12.062l-2.156-2.772c-.012-.017-.028-.028-.041-.043-.024-.027-.048-.054-.075-.079a1.21 1.21 0 0 0-.157-.119c-.029-.019-.058-.033-.088-.048a.775.775 0 0 0-.089-.039c-.032-.013-.063-.021-.096-.03a.751.751 0 0 0-.203-.032c-.02-.001-.039-.006-.059-.006h-21.514c-.788 0-1.43-.642-1.43-1.431zm70.059 7.154c0 .789-.643 1.431-1.431 1.431h-4.442v-1.124H285.9v1.124h-1.636v-1.124h-2.044v1.124h-1.635v-1.124h-2.045v1.124h-52.022v-1.124h-2.044v1.124h-4.859a1.433 1.433 0 0 1-1.431-1.431v-2.248c0-.789.642-1.432 1.431-1.432h26.589l2.463 3.169h14.062l2.463-3.169h27.194c.788 0 1.431.643 1.431 1.432v2.248z"/><path d="M242.589 238.29a4.162 4.162 0 0 0 4.158-4.156 4.163 4.163 0 0 0-4.158-4.158 4.161 4.161 0 0 0-4.156 4.158 4.16 4.16 0 0 0 4.156 4.156zm0-6.27c1.166 0 2.114.948 2.114 2.114a2.113 2.113 0 1 1-2.114-2.114zm6.183 3.136h23.167a1.022 1.022 0 1 0 0-2.044h-23.167a1.023 1.023 0 0 0 0 2.044zm-6.183 15.188a4.162 4.162 0 0 0 4.158-4.155 4.161 4.161 0 0 0-4.158-4.156 4.16 4.16 0 0 0-4.156 4.156 4.16 4.16 0 0 0 4.156 4.155zm0-6.268c1.166 0 2.114.947 2.114 2.112a2.113 2.113 0 0 1-4.225 0 2.113 2.113 0 0 1 2.111-2.112zm6.183 3.134h23.167a1.022 1.022 0 1 0 0-2.044h-23.167a1.023 1.023 0 0 0 0 2.044zm-6.183 15.19a4.162 4.162 0 0 0 4.158-4.155 4.162 4.162 0 0 0-4.158-4.158 4.161 4.161 0 0 0-4.156 4.158 4.16 4.16 0 0 0 4.156 4.155zm0-6.269c1.166 0 2.114.948 2.114 2.114a2.113 2.113 0 1 1-2.114-2.114zm6.183 3.135h23.167a1.022 1.022 0 1 0 0-2.043h-23.167a1.022 1.022 0 1 0 0 2.043zm-6.183 15.188a4.162 4.162 0 0 0 4.158-4.155 4.161 4.161 0 0 0-4.158-4.156 4.16 4.16 0 0 0-4.156 4.156 4.16 4.16 0 0 0 4.156 4.155zm0-6.267c1.166 0 2.114.947 2.114 2.111s-.948 2.111-2.114 2.111c-1.165 0-2.111-.947-2.111-2.111s.946-2.111 2.111-2.111zm24.618-1.931l-13.173-3.53a1.021 1.021 0 1 0-1.251 1.252l3.53 13.172a1.021 1.021 0 0 0 1.96.047l1.824-5.711 4.834 4.834a1.018 1.018 0 0 0 1.446 0 1.022 1.022 0 0 0 0-1.445l-4.834-4.833 5.71-1.824a1.024 1.024 0 0 0-.046-1.962zm-7.884 2.347l-.049.019-.041.017a.947.947 0 0 0-.148.078l-.031.021a1.04 1.04 0 0 0-.141.115l-.001.001-.001.001a1.057 1.057 0 0 0-.116.142l-.021.03a1.01 1.01 0 0 0-.079.149l-.016.04c-.006.017-.014.032-.019.05l-1.275 3.99-2.17-8.099 8.099 2.171-3.991 1.275z"/></svg>