<svg fill="#FFF" xmlns="http://www.w3.org/2000/svg" viewBox="0 0 64 88"><path d="M32 44.977c8.271 0 15-6.729 15-15.001 0-8.271-6.729-14.999-15-14.999s-15 6.729-15 14.999c0 8.271 6.729 15.001 15 15.001zm0-2a12.932 12.932 0 0 1-8.357-3.057c.146-.008.289-.018.445-.018 1.34 0 2.489-.224 3.42-.627.99.902 2.654 1.445 4.413 1.445.196 0 .394-.007.591-.021 1.484-.103 2.705-.603 3.414-1.379.994.513 2.208.619 3.261.619.378 0 .719.037 1.05.084A12.928 12.928 0 0 1 32 42.977zm-5.791-15.879c.388-2.945 2.036-5.663 5.741-5.663 1.073 0 1.973.228 2.721.623-.147.538-1.582 4.964-8.462 5.04zm9.104-4.625c1.633 1.226 2.356 3.371 2.459 5.511-.994-.432-3.147-1.626-3.147-3.885a.358.358 0 0 0-.051-.177c.401-.61.628-1.138.739-1.449zm-1.378 2.282c.392 2.527 2.979 3.708 3.838 4.034-.147 3.919-3.577 6.839-5.823 6.839-2.296 0-5.837-3.047-5.837-7.096 0-.229.008-.458.022-.688 4.163-.027 6.508-1.603 7.8-3.089zm-1.984 11.614c.659 0 1.351-.188 2.028-.513.061 1.48.568 2.435 1.301 3.041-.592.587-1.581.977-2.818 1.063-1.634.106-3.272-.311-4.251-1.063 1.099-.686 1.749-1.702 1.855-2.974.631.284 1.271.446 1.885.446zM32 16.977c7.168 0 13 5.831 13 12.999 0 3.707-1.567 7.047-4.064 9.418a7.526 7.526 0 0 0-1.749-.195c-3.183 0-4.481-1.054-4.481-3.637 0-.035-.011-.067-.02-.099 2.075-1.331 3.843-3.982 3.843-6.931 0-4.762-2.583-7.838-6.579-7.838s-6.579 3.076-6.579 7.838c0 3.021 1.854 5.724 3.993 7.022l-.002.009c0 3.339-4.038 3.599-5.275 3.599-.43 0-.817.035-1.182.09A12.968 12.968 0 0 1 19 29.976c0-7.168 5.832-12.999 13-12.999z"/><path d="M63 0H1a1 1 0 0 0-1 1v86a1 1 0 0 0 1 1h62a1 1 0 0 0 1-1V1a1 1 0 0 0-1-1zm-1 86H2V2h60v84z"/><path d="M16 51h32v2H16zm4 4.5h24v1H20zm-8 8h40v1H12zm0 4h40v1H12zm0 4h40v1H12z"/></svg>