<svg fill="#FFF" xmlns="http://www.w3.org/2000/svg" viewBox="0 0 128 128"><path d="M119 90.8c-.4 0-.8.3-.8.8v13c0 .4.3.8.8.8.4 0 .8-.3.8-.8v-13c0-.5-.3-.8-.8-.8zm0 17.2c-.4 0-.8.3-.8.8v4.2c0 .4.3.8.8.8.4 0 .8-.3.8-.8v-4.2c0-.5-.3-.8-.8-.8zM9.7 41.8c.4 0 .8-.3.8-.8V28c0-.4-.3-.8-.8-.8-.4 0-.8.3-.8.8v13c0 .5.4.8.8.8zm0 8.5c.4 0 .8-.3.8-.8v-4.2c0-.4-.3-.8-.8-.8-.4 0-.8.3-.8.8v4.2c0 .4.4.8.8.8zM113.5 5.1c.1.1.3.2.5.2s.4-.1.5-.2c.3-.3.3-.8 0-1.1l-1.8-1.8c-.3-.3-.8-.3-1.1 0-.3.3-.3.8 0 1.1l1.9 1.8zm5.8 5.8c.1.1.3.2.5.2s.4-.1.5-.2c.3-.3.3-.8 0-1.1L118.6 8c-.3-.3-.8-.3-1.1 0-.3.3-.3.8 0 1.1l1.8 1.8zm-7 .2c.2 0 .4-.1.5-.2l1.8-1.8c.3-.3.3-.8 0-1.1-.3-.3-.8-.3-1.1 0l-1.8 1.8c-.3.3-.3.8 0 1.1.2.1.4.2.6.2zm5.7-5.8c.2 0 .4-.1.5-.2l1.8-1.8c.3-.3.3-.8 0-1.1-.3-.3-.8-.3-1.1 0L117.5 4c-.3.3-.3.8 0 1.1.1.1.3.2.5.2zM2.7 108.9c-.3-.3-.8-.3-1.1 0-.3.3-.3.8 0 1.1l1.8 1.8c.1.1.3.2.5.2s.4-.1.5-.2c.3-.3.3-.8 0-1.1l-1.7-1.8zm5.8 5.8c-.3-.3-.8-.3-1.1 0-.3.3-.3.8 0 1.1l1.8 1.8c.1.1.3.2.5.2s.4-.1.5-.2c.3-.3.3-.8 0-1.1l-1.7-1.8zm-5.1 0l-1.8 1.8c-.3.3-.3.8 0 1.1.1.1.3.2.5.2s.4-.1.5-.2l1.8-1.8c.3-.3.3-.8 0-1.1-.2-.3-.7-.3-1 0zm5.8-5.8l-1.8 1.8c-.3.3-.3.8 0 1.1.1.1.3.2.5.2s.4-.1.5-.2l1.8-1.8c.3-.3.3-.8 0-1.1-.3-.2-.7-.2-1 0zm112.2-48.5c-2.1 0-3.8 1.7-3.8 3.8 0 2.1 1.7 3.8 3.8 3.8 2.1 0 3.8-1.7 3.8-3.8 0-2.1-1.7-3.8-3.8-3.8zm0 6c-1.3 0-2.3-1-2.3-2.3 0-1.3 1-2.3 2.3-2.3 1.3 0 2.3 1 2.3 2.3 0 1.3-1 2.3-2.3 2.3zM7.9 77c-2.1 0-3.8 1.7-3.8 3.8 0 2.1 1.7 3.8 3.8 3.8 2.1 0 3.8-1.7 3.8-3.8 0-2.1-1.7-3.8-3.8-3.8zm0 6c-1.3 0-2.3-1-2.3-2.3 0-1.3 1-2.3 2.3-2.3 1.3 0 2.3 1 2.3 2.3 0 1.3-1 2.3-2.3 2.3zm65.4-70.3c2.1 0 3.8-1.7 3.8-3.8 0-2.1-1.7-3.8-3.8-3.8-2.1 0-3.8 1.7-3.8 3.8 0 2.1 1.7 3.8 3.8 3.8zm0-6.1c1.3 0 2.3 1 2.3 2.3 0 1.3-1 2.3-2.3 2.3-1.3 0-2.3-1-2.3-2.3 0-1.3 1-2.3 2.3-2.3zm28.6 32.2c0 .4.3.8.8.8h14.1c.4 0 .8-.3.8-.8s-.3-.8-.8-.8h-14.1c-.5.1-.8.4-.8.8zm19.4.8h4.5c.4 0 .8-.3.8-.8s-.3-.8-.8-.8h-4.5c-.4 0-.8.3-.8.8s.4.8.8.8zm4.5 3.3H116c-.4 0-.8.3-.8.8s.3.8.8.8h9.8c.4 0 .8-.3.8-.8s-.3-.8-.8-.8zm-14 0h-3.2c-.4 0-.8.3-.8.8s.3.8.8.8h3.2c.4 0 .8-.3.8-.8s-.4-.8-.8-.8zM24.1 2h14.1c.4 0 .8-.3.8-.8s-.3-.8-.8-.8H24.1c-.4 0-.8.3-.8.8s.4.8.8.8zm18.7 0h4.5c.4 0 .8-.3.8-.8s-.3-.8-.8-.8h-4.5c-.4 0-.8.3-.8.8s.4.8.8.8zm4.5 3.3h-9.8c-.4 0-.8.3-.8.8s.3.8.8.8h9.8c.4 0 .8-.3.8-.8s-.3-.8-.8-.8zm-17.1 0c-.4 0-.8.3-.8.8s.3.8.8.8h3.2c.4 0 .8-.3.8-.8s-.3-.8-.8-.8h-3.2zm82 98.6V61.6L107.4 51c-.2-.5-1.1-.5-1.4 0l-4.8 10.6c-.1.2-.1.3 0 .5v57.3c0 2.4 1.9 4.3 4.3 4.3h2.4c2.4 0 4.3-1.9 4.3-4.3v-15.5zm-5.5-50.7l3.7 8.4H103l3.7-8.4zm4 66.2c0 1.5-1.2 2.8-2.8 2.8h-2.4c-1.5 0-2.8-1.2-2.8-2.8v-5.9h8v5.9zm0-7.3h-8v-3h8v3zm0-4.5h-8v-3h8v3zm0-4.5h-8V63h8v40.1z"/><path d="M106.7 98c.4 0 .8-.3.8-.8v-4c0-.4-.3-.8-.8-.8-.4 0-.8.3-.8.8v4c.1.5.4.8.8.8zm0-20.1c.4 0 .8-.3.8-.8v-4c0-.4-.3-.8-.8-.8-.4 0-.8.3-.8.8v4c.1.5.4.8.8.8zm0 10.1c.4 0 .8-.3.8-.8v-4c0-.4-.3-.8-.8-.8-.4 0-.8.3-.8.8v4c.1.4.4.8.8.8zm4.8-60.1v-.1c.1-.1.2-.2.3-.4.3-.9.4-1.9.4-2.9 0-5.3-4.3-9.6-9.6-9.6H26c-5.7 0-10.4 4.7-10.4 10.4V123c0 .4.3.8.8.8H94c.4 0 .8-.3.8-.8V28.7h16.1c.3 0 .6-.4.6-.8zm-18.3 94.3H17.1V25.4c0-4.9 4-8.9 8.9-8.9s8.9 4 8.9 8.9c0 .7-.1 1.7-.3 2.3-.1.4.2.8.6.9h.2c.1 0 .2.1.3.1h57.4v93.5zM110.3 27v.2h-74c.1-.6.2-1.2.2-1.8 0-3.8-2.1-7.1-5.1-9h71.3c4.5 0 8.1 3.6 8.1 8.1-.1.9-.2 1.7-.5 2.5z"/><path d="M30.9 56.3v.1l.1.1.1.1.1.1.1.1h14.6c.1 0 .1 0 .1-.1 0 0 .1 0 .1-.1l.1-.1.1-.1v-.5c-.2-.6-.4-1.3-.6-1.8-.5-1.7-2.1-2.7-4-2.5h-.5c0-.1.1-.2.1-.3v-1c.4-.5.8-1 1.1-1.7.5-.3.9-1 .9-1.9 0-.7-.2-1.2-.5-1.6 0-.4.1-.7.1-1.1.1-2.3-.6-2.7-1.8-3.1l-.1-.1c-.9-.3-1.7-.3-2.3-.3-.6 0-1.5.1-2.3.3l-.2.1c-1.1.4-1.9.8-1.8 3.1 0 .3.1.7.1 1.1-.4.3-.5.9-.5 1.5 0 .9.3 1.7.9 1.9.3.7.6 1.2 1.1 1.7v1c0 .1 0 .2.1.3h-.5c-1.9-.2-3.5.8-4 2.5-.2.6-.4 1.2-.6 1.9v.2c-.1.1-.1.1-.1.2zm4.8-9.1c-.1 0-.1 0-.2-.1 0-.1-.1-.3-.1-.5 0-.3.1-.5.1-.6.2-.1.4-.4.4-.6v-.3c-.1-.4-.1-.9-.1-1.3-.1-1.3 0-1.3.7-1.6l.2-.1c.5-.2 1.2-.3 1.9-.3s1.3.1 1.9.3l.2.1c.7.2.8.3.7 1.6 0 .4-.1.8-.1 1.3v.3c0 .2.2.4.4.5 0 .1.1.3.1.6 0 .2 0 .4-.1.5-.1 0-.1 0-.2.1-.2.1-.3.3-.4.5-.4 1.4-1.4 2.3-2.6 2.3-1.1 0-2.1-.9-2.6-2.3.2-.2 0-.3-.2-.4zm-2.8 7.2c.3-1 1.2-1.6 2.5-1.5.4 0 .7 0 1.1.1.4 0 .8-.3.8-.7 0-.2-.1-.3-.1-.5.2-.1.4-.4.4-.6.4.1.8.2 1.3.2.4 0 .9-.1 1.3-.2 0 .3.1.5.3.6-.1.1-.2.3-.2.5 0 .4.4.7.8.7s.7 0 1.1-.1c1.2-.1 2.2.5 2.5 1.5l.3.9H32.6l.3-.9z"/><path d="M24.1 50.3c0 8.1 6.6 14.6 14.6 14.6 8.1 0 14.6-6.6 14.6-14.6 0-8.1-6.6-14.6-14.6-14.6-8.1 0-14.6 6.5-14.6 14.6zm14.6-13.1c7.2 0 13.1 5.9 13.1 13.1 0 7.2-5.9 13.1-13.1 13.1s-13.1-5.9-13.1-13.1c0-7.3 5.9-13.1 13.1-13.1zm19.8 7.3H78c.4 0 .8-.3.8-.8 0-.4-.3-.8-.8-.8H58.5c-.4 0-.8.3-.8.8.1.4.4.8.8.8zm0 4.8h24.9c.4 0 .8-.3.8-.8 0-.4-.3-.8-.8-.8H58.5c-.4 0-.8.3-.8.8.1.4.4.8.8.8zm0 4.8h28.3c.4 0 .8-.3.8-.8s-.3-.8-.8-.8H58.5c-.4 0-.8.3-.8.8s.4.8.8.8zm-33.7 22h26.4c.4 0 .8-.3.8-.8 0-.4-.3-.8-.8-.8H24.8c-.4 0-.8.3-.8.8.1.5.4.8.8.8zm33.7 0h26.3c.4 0 .8-.3.8-.8 0-.4-.3-.8-.8-.8H58.5c-.4 0-.8.3-.8.8.1.5.4.8.8.8zm-33.7 5.4h38.7c.4 0 .8-.3.8-.8 0-.4-.3-.8-.8-.8H24.8c-.4 0-.8.3-.8.8.1.5.4.8.8.8zm60-1.5H70.2c-.4 0-.8.3-.8.8 0 .4.3.8.8.8h14.6c.4 0 .8-.3.8-.8s-.3-.8-.8-.8zm0 21.5H46.2c-.4 0-.8.3-.8.8 0 .4.3.8.8.8h38.7c.4 0 .8-.3.8-.8-.1-.5-.4-.8-.9-.8zm-60 1.5h14.6c.4 0 .8-.3.8-.8 0-.4-.3-.8-.8-.8H24.8c-.4 0-.8.3-.8.8.1.5.4.8.8.8zm60-17.6h-60c-.4 0-.8.3-.8.8 0 .4.3.8.8.8h60c.4 0 .8-.3.8-.8s-.3-.8-.8-.8zm-60 6.8h9.9c.4 0 .8-.3.8-.8 0-.4-.3-.8-.8-.8h-9.9c-.4 0-.8.3-.8.8.1.5.4.8.8.8zm60-1.5H41.6c-.4 0-.8.3-.8.8 0 .4.3.8.8.8h43.2c.4 0 .8-.3.8-.8 0-.4-.3-.8-.8-.8zm-60 6.9H40c.4 0 .8-.3.8-.8 0-.4-.3-.8-.8-.8H24.8c-.4 0-.8.3-.8.8.1.5.4.8.8.8zm37.9 0c.4 0 .8-.3.8-.8 0-.4-.3-.8-.8-.8H47.5c-.4 0-.8.3-.8.8 0 .4.3.8.8.8h15.2zm22.1-1.5H69c-.4 0-.8.3-.8.8 0 .4.3.8.8.8h15.9c.4 0 .8-.3.8-.8-.1-.4-.4-.8-.9-.8zm0 10.8h-60c-.4 0-.8.3-.8.8 0 .4.3.8.8.8h60c.4 0 .8-.3.8-.8s-.3-.8-.8-.8zm-15.3 5.3H24.8c-.4 0-.8.3-.8.8 0 .4.3.8.8.8h44.7c.4 0 .8-.3.8-.8 0-.4-.4-.8-.8-.8zm15.3 0h-9c-.4 0-.8.3-.8.8 0 .4.3.8.8.8h9c.4 0 .8-.3.8-.8 0-.4-.3-.8-.8-.8zm2 13.8H16.3c-.4 0-.8.3-.8.8 0 .4.3.8.8.8h70.5c.4 0 .8-.3.8-.8s-.4-.8-.8-.8z"/></svg>