<svg fill="#F05054" xmlns="http://www.w3.org/2000/svg" viewBox="0 0 100 100"><path d="M41.449 58.293c1.508 4.523 7.539 4.523 6.031-3.016-3.016-9.047-1.508-21.109-7.539-19.601-4.523 1.508-3.016 4.523-3.016 6.031 1.508 6.031 1.508 6.031 4.524 16.586zm27.139-10.555V17.583c0-6.031 0-10.554-4.523-10.554s-4.523 4.523-4.523 10.554v24.124l9.046 6.031zM47.48 40.2c1.508 10.554 1.508 15.078 3.016 18.093 1.508 3.016 4.523 3.016 6.031 0-9.047-6.031-7.539-18.093 0-16.585 0-4.523 0-9.047-4.523-9.047-6.032 0-4.524 4.523-4.524 7.539z"/><path d="M67.081 83.925c1.508-6.031 4.523-7.539 4.523-15.078 0-10.554 0-15.078-6.031-19.601-4.523-3.016-9.047-7.539-12.062-4.523-3.016 4.523 3.016 12.062 7.539 13.57V59.8c-3.016 3.016-7.539 9.047-4.523 19.601h-3.016c-1.508-10.554 0-13.57 4.523-19.601 0 0-4.523 6.031-9.047 0 0 4.523-6.031 4.523-7.539 1.508-3.016 4.523-9.047 4.523-12.062-7.539 0 4.523 1.508 7.539 3.016 13.57 1.508 9.047 3.016 13.57 4.523 16.585 3.016 4.523 3.016 6.031 3.016 9.047h25.632c0-3.015 0-4.523 1.508-9.046z"/><path d="M36.925 61.308c4.523-1.508 1.508-4.523 0-10.554-1.508-4.523-1.508-10.554-6.031-9.047-3.016 1.508-3.016 4.523-1.508 7.539s4.524 13.57 7.539 12.062z"/></svg>