<?xml version="1.0" encoding="utf-8"?>
<!-- Generator: Adobe Illustrator 21.0.2, SVG Export Plug-In . SVG Version: 6.00 Build 0)  -->
<svg version="1.1" id="Layer_1" xmlns="http://www.w3.org/2000/svg" xmlns:xlink="http://www.w3.org/1999/xlink" x="0px" y="0px"
	 viewBox="0 0 300 300" enable-background="new 0 0 300 300" xml:space="preserve">
<g>
	<g>
		<path fill="#EF5154" d="M129.9,275.3H97.3L97,275l-72.8-72.8v-32.6L129.9,275.3z M98.1,273.2h26.8l-98.7-98.7v26.8L98.1,273.2z"/>
	</g>
	<g>
		<path fill="#EF5154" d="M200.6,275.3H168l105.7-105.7v32.6L200.6,275.3z M172.9,273.2h26.8l71.9-71.9v-26.8L172.9,273.2z"/>
	</g>
	<g>
		<path fill="#EF5154" d="M24.2,130.5V98.8l0.3-0.3l72.8-72.8H129L24.2,130.5z M26.2,99.7v25.9L124,27.8H98.1L26.2,99.7z"/>
	</g>
	<g>
		<path fill="#EF5154" d="M273.7,130.5l-14.2-14.2l-90.6-90.5h31.7l0.3,0.3l72.8,72.8V130.5z M173.9,27.8l97.8,97.8V99.7l-71.9-71.9
			H173.9z"/>
	</g>
	<g>
		<path fill="#EF5154" d="M123.9,269.3H99.7l-0.3-0.3l-69.3-69.3v-24.2L123.9,269.3z M100.6,267.3H119l-86.8-86.8v18.4L100.6,267.3z
			"/>
	</g>
	<g>
		<path fill="#EF5154" d="M198.2,269.3h-24.2l93.8-93.8v24.2L198.2,269.3z M178.9,267.3h18.4l68.4-68.4v-18.4L178.9,267.3z"/>
	</g>
	<g>
		<path fill="#EF5154" d="M30.1,124.6v-23.3l0.3-0.3l69.3-69.3H123L30.1,124.6z M32.2,102.1v17.5l85.9-85.9h-17.5L32.2,102.1z"/>
	</g>
	<g>
		<path fill="#EF5154" d="M267.8,124.6l-92.9-92.9h23.3l69.6,69.6V124.6z M179.8,33.7l85.9,85.9v-17.5l-68.4-68.4H179.8z"/>
	</g>
	<g>
		<path fill="#EF5154" d="M36.7,118v-14l65.8-65.8h14L36.7,118z M38.7,104.8v8.2l72.8-72.8h-8.2L38.7,104.8z"/>
	</g>
	<g>
		<path fill="#EF5154" d="M117.4,262.8h-14.9l-0.3-0.3L36.7,197v-15L117.4,262.8z M103.3,260.7h9.1L38.7,187v9.1L103.3,260.7z"/>
	</g>
	<g>
		<path fill="#EF5154" d="M261.2,118l-79.8-79.8h14.1l0.3,0.3l65.5,65.5V118z M186.3,40.3l72.8,72.8v-8.2l-64.6-64.6H186.3z"/>
	</g>
	<g>
		<path fill="#EF5154" d="M195.4,262.8h-15l80.7-80.7v15L195.4,262.8z M185.5,260.7h9.1l64.6-64.6V187L185.5,260.7z"/>
	</g>
	<g>
		<path fill="#EF5154" d="M276.2,127.4l-6.1-6.1l-6.7-6.7l-78.5-78.5L148.9,0.1l-23.1,23.1l-6.1,6.1l-6.7,6.7l-78.5,78.5l-6.7,6.7
			l-6.1,6.1L-1,150.1l35.5,35.5l79.4,79.4l12.9,12.9l22.2,22.2l114.5-114.5l6.7-6.7l6.1-6.1l22.6-22.6L276.2,127.4z M170.6,176
			c0,12.9-3.4,23.2-14,29.9c-10.6,6.6-26.4,6-34.8,12.6l-1-1c4.6-4.1,11-7,14.8-13.4c3.8-6.6,3.9-13.6,3.9-23.9v-50.4
			c0-5.4-2.4-7.4-7.4-7.4l-0.6-1.1c21.2,0,39-6.8,39-6.8V176z M154.8,109.7c-10.8,0-15.9-5.7-15.9-13.4c0-7.8,5.2-13.8,15.9-13.8
			c10.8,0,16.1,6,16.1,13.8C170.9,104,165.6,109.7,154.8,109.7z"/>
	</g>
</g>
</svg>
