<?xml version="1.0" encoding="utf-8"?>
<!-- Generator: Adobe Illustrator 21.0.2, SVG Export Plug-In . SVG Version: 6.00 Build 0)  -->
<svg version="1.1" id="Layer_1" xmlns="http://www.w3.org/2000/svg" xmlns:xlink="http://www.w3.org/1999/xlink" x="0px" y="0px"
	 viewBox="0 0 300 300" enable-background="new 0 0 300 300" xml:space="preserve">
<g>
	<g>
		<path fill="#FFFFFF" d="M131.3,277H98.1l-0.3-0.3l-74.1-74.1v-33.2L131.3,277z M98.9,274.9h27.3L25.8,174.4v27.3L98.9,274.9z"/>
	</g>
	<g>
		<path fill="#FFFFFF" d="M203.3,277H170l107.6-107.6v33.2L203.3,277z M175.1,274.9h27.3l73.2-73.2v-27.3L175.1,274.9z"/>
	</g>
	<g>
		<path fill="#FFFFFF" d="M23.7,129.7V97.4L98.1,23h32.3L23.7,129.7z M25.8,98.3v26.4l99.5-99.5H98.9L25.8,98.3z"/>
	</g>
	<g>
		<path fill="#FFFFFF" d="M277.6,129.7L171,23h32.3l0.3,0.3l74.1,74.1V129.7z M176,25.1l99.5,99.5V98.3l-73.2-73.2H176z"/>
	</g>
	<g>
		<path fill="#FFFFFF" d="M125.2,270.9h-24.6l-0.3-0.3l-70.5-70.5v-24.7L125.2,270.9z M101.4,268.8h18.7l-88.3-88.4v18.7
			L101.4,268.8z"/>
	</g>
	<g>
		<path fill="#FFFFFF" d="M200.7,270.9h-24.7l95.5-95.5v24.7L200.7,270.9z M181.1,268.8h18.7l69.6-69.6v-18.7L181.1,268.8z"/>
	</g>
	<g>
		<path fill="#FFFFFF" d="M29.7,123.6V99.9l70.9-70.8h23.7L29.7,123.6z M31.8,100.8v17.8l87.4-87.4h-17.8L31.8,100.8z"/>
	</g>
	<g>
		<path fill="#FFFFFF" d="M271.6,123.6l-8.5-8.5L177,29.1h23.7l0.3,0.3l70.5,70.5V123.6z M182.1,31.2l87.4,87.4v-17.8l-69.6-69.6
			H182.1z"/>
	</g>
	<g>
		<path fill="#FFFFFF" d="M36.4,117v-14.3l0.3-0.3l66.6-66.6h14.3L36.4,117z M38.5,103.5v8.4l74.1-74.1h-8.4L38.5,103.5z"/>
	</g>
	<g>
		<path fill="#FFFFFF" d="M118.5,264.3h-15.2L103,264l-66.6-66.6v-15.2L118.5,264.3z M104.2,262.2h9.3l-75-75v9.3L104.2,262.2z"/>
	</g>
	<g>
		<path fill="#FFFFFF" d="M264.9,117l-81.3-81.2H198l0.3,0.3l66.6,66.6V117z M188.7,37.8l74.1,74.1v-8.4l-65.7-65.7H188.7z"/>
	</g>
	<g>
		<path fill="#FFFFFF" d="M198,264.3h-15.2l82.2-82.2v15.2L198,264.3z M187.8,262.2h9.3l65.7-65.7v-9.3L187.8,262.2z"/>
	</g>
	<g>
		<path fill="#FFFFFF" d="M277.6,127l-6.1-6.1l-6.7-6.7l-78.3-78.3L150.6,0l-23,23l-6.1,6.1l-6.7,6.7l-78.3,78.3l-6.7,6.7l-6.1,6.1
			L1.1,149.5l35.4,35.4l79.2,79.2l12.8,12.8l22.1,22.1l114.2-114.2l6.7-6.7l6.1-6.1l22.6-22.6L277.6,127z M172.3,175.4
			c0,12.8-3.3,23.1-13.9,29.8c-10.6,6.5-26.3,6-34.7,12.5l-1-1c4.6-4,11-7,14.8-13.4c3.8-6.5,3.9-13.5,3.9-23.8v-50.3
			c0-5.4-2.4-7.4-7.4-7.4l-0.6-1.1c21.2,0,38.9-6.8,38.9-6.8V175.4z M156.5,109.3c-10.7,0-15.9-5.7-15.9-13.4
			c0-7.8,5.2-13.8,15.9-13.8c10.7,0,16,6,16,13.8C172.6,103.6,167.3,109.3,156.5,109.3z"/>
	</g>
</g>
</svg>
