<svg fill="#FFFFFF" xmlns="http://www.w3.org/2000/svg" xmlns:xlink="http://www.w3.org/1999/xlink" version="1.1" x="0px" y="0px" viewBox="0 0 65 65" enable-background="new 0 0 65 65" xml:space="preserve"><g><polygon points="46.9,14.2 43.9,14.2 43.9,10 42.4,10 42.4,14.2 38.7,14.2 38.7,15.7 43.3,15.7 39.3,19.6 35.3,15.7 36.5,15.7    36.5,1 35,1 35,14.2 31.7,14.2 39.3,21.8  "></polygon><rect x="42.4" y="6.5" width="1.5" height="1.5"></rect><rect x="42.4" y="3.5" width="1.5" height="1.5"></rect><rect x="27" y="8.6" width="1.5" height="1.5"></rect><rect x="27" y="2.6" width="1.5" height="1.5"></rect><rect x="27" y="5.6" width="1.5" height="1.5"></rect><polygon points="31.5,20.8 28.5,20.8 28.5,12.2 27,12.2 27,20.8 23.4,20.8 23.4,22.3 27.9,22.3 23.9,26.3 20,22.3 21.2,22.3    21.2,0.1 19.7,0.1 19.7,20.8 16.3,20.8 23.9,28.4  "></polygon><path d="M59.9,32.4H44.1l-4.4,9.5l-4.4-9.5H5.1l5.3,11.4v21.1h44.1V43.8L59.9,32.4z M45.1,33.9h12.5l-4.2,9H40.9L45.1,33.9z    M34.3,33.9l4.2,9H11.7l-4.2-9H34.3z M38.9,63.4h-27v-19h27V63.4z M53.1,63.4H40.4v-19h12.6V63.4z"></path><rect x="21.5" y="59.8" width="1.5" height="1.5"></rect><rect x="14.5" y="59.8" width="1.5" height="1.5"></rect><rect x="18" y="59.8" width="1.5" height="1.5"></rect></g></svg>