<svg fill="#FFFFFF" xmlns="http://www.w3.org/2000/svg" xmlns:xlink="http://www.w3.org/1999/xlink" version="1.1" x="0px" y="0px" viewBox="0 0 128 128" enable-background="new 0 0 128 128" xml:space="preserve"><g><path d="M116.4,23c0.4,0,0.8-0.3,0.8-0.8V9.7c0-0.4-0.3-0.8-0.8-0.8c-0.4,0-0.8,0.3-0.8,0.8v12.6C115.6,22.7,115.9,23,116.4,23z"></path><path d="M116.4,33.4c0.4,0,0.8-0.3,0.8-0.8v-4.5c0-0.4-0.3-0.8-0.8-0.8c-0.4,0-0.8,0.3-0.8,0.8v4.5   C115.6,33.1,115.9,33.4,116.4,33.4z"></path><path d="M1.3,58.3c-0.4,0-0.8,0.3-0.8,0.8v12.6c0,0.4,0.3,0.8,0.8,0.8C1.7,72.3,2,72,2,71.6V59C2,58.6,1.7,58.3,1.3,58.3z"></path><path d="M1.3,76.7c-0.4,0-0.8,0.3-0.8,0.8V82c0,0.4,0.3,0.8,0.8,0.8C1.7,82.7,2,82.4,2,82v-4.5C2,77.1,1.7,76.7,1.3,76.7z"></path><path d="M30.8,27.6c0,2.4,1.9,4.3,4.3,4.3c2.4,0,4.3-1.9,4.3-4.3s-1.9-4.3-4.3-4.3C32.7,23.4,30.8,25.3,30.8,27.6z M35.1,24.9   c1.5,0,2.8,1.2,2.8,2.8s-1.2,2.8-2.8,2.8c-1.5,0-2.8-1.2-2.8-2.8S33.5,24.9,35.1,24.9z"></path><path d="M80.4,118c-2.4,0-4.3,1.9-4.3,4.3c0,2.4,1.9,4.3,4.3,4.3c2.4,0,4.3-1.9,4.3-4.3C84.7,119.9,82.8,118,80.4,118z M80.4,125   c-1.5,0-2.8-1.2-2.8-2.8c0-1.5,1.2-2.8,2.8-2.8c1.5,0,2.8,1.2,2.8,2.8C83.2,123.8,81.9,125,80.4,125z"></path><path d="M18.2,6.2c0,0.4,0.3,0.8,0.8,0.8h14.3c0.4,0,0.8-0.3,0.8-0.8c0-0.4-0.3-0.8-0.8-0.8H19C18.6,5.4,18.2,5.8,18.2,6.2z"></path><path d="M9.7,6.9h4.6c0.4,0,0.8-0.3,0.8-0.8c0-0.4-0.3-0.8-0.8-0.8H9.7c-0.4,0-0.8,0.3-0.8,0.8C8.9,6.6,9.3,6.9,9.7,6.9z"></path><path d="M9.7,2h10c0.4,0,0.8-0.3,0.8-0.8s-0.3-0.8-0.8-0.8h-10c-0.4,0-0.8,0.3-0.8,0.8S9.3,2,9.7,2z"></path><path d="M23.9,2h3.2c0.4,0,0.8-0.3,0.8-0.8s-0.3-0.8-0.8-0.8h-3.2c-0.4,0-0.8,0.3-0.8,0.8S23.5,2,23.9,2z"></path><path d="M114.3,120.9c0-0.4-0.3-0.8-0.8-0.8H99.3c-0.4,0-0.8,0.3-0.8,0.8c0,0.4,0.3,0.8,0.8,0.8h14.3   C114,121.6,114.3,121.3,114.3,120.9z"></path><path d="M122.9,120.1h-4.6c-0.4,0-0.8,0.3-0.8,0.8c0,0.4,0.3,0.8,0.8,0.8h4.6c0.4,0,0.8-0.3,0.8-0.8   C123.7,120.4,123.3,120.1,122.9,120.1z"></path><path d="M122.9,125h-10c-0.4,0-0.8,0.3-0.8,0.8c0,0.4,0.3,0.8,0.8,0.8h10c0.4,0,0.8-0.3,0.8-0.8C123.7,125.4,123.3,125,122.9,125z"></path><path d="M108.6,125h-3.2c-0.4,0-0.8,0.3-0.8,0.8c0,0.4,0.3,0.8,0.8,0.8h3.2c0.4,0,0.8-0.3,0.8-0.8C109.4,125.4,109.1,125,108.6,125   z"></path><path d="M96.6,6.9c0.1,0.1,0.3,0.2,0.5,0.2c0.2,0,0.4-0.1,0.5-0.2c0.3-0.3,0.3-0.8,0-1.1L95.8,4c-0.3-0.3-0.8-0.3-1.1,0   c-0.3,0.3-0.3,0.8,0,1.1L96.6,6.9z"></path><path d="M102.7,13.1c0.1,0.1,0.3,0.2,0.5,0.2c0.2,0,0.4-0.1,0.5-0.2c0.3-0.3,0.3-0.8,0-1.1l-1.9-1.9c-0.3-0.3-0.8-0.3-1.1,0   c-0.3,0.3-0.3,0.8,0,1.1L102.7,13.1z"></path><path d="M95.3,13.3c0.2,0,0.4-0.1,0.5-0.2l1.9-1.9c0.3-0.3,0.3-0.8,0-1.1c-0.3-0.3-0.8-0.3-1.1,0L94.7,12c-0.3,0.3-0.3,0.8,0,1.1   C94.9,13.2,95.1,13.3,95.3,13.3z"></path><path d="M101.4,7.2c0.2,0,0.4-0.1,0.5-0.2l1.9-1.9c0.3-0.3,0.3-0.8,0-1.1c-0.3-0.3-0.8-0.3-1.1,0l-1.9,1.9c-0.3,0.3-0.3,0.8,0,1.1   C101,7.1,101.2,7.2,101.4,7.2z"></path><path d="M1.8,17.7c-0.3-0.3-0.8-0.3-1.1,0c-0.3,0.3-0.3,0.8,0,1.1l1.9,1.9c0.1,0.1,0.3,0.2,0.5,0.2c0.2,0,0.4-0.1,0.5-0.2   c0.3-0.3,0.3-0.8,0-1.1L1.8,17.7z"></path><path d="M9.2,27c0.2,0,0.4-0.1,0.5-0.2c0.3-0.3,0.3-0.8,0-1.1l-1.9-1.9c-0.3-0.3-0.8-0.3-1.1,0c-0.3,0.3-0.3,0.8,0,1.1l1.9,1.9   C8.9,27,9.1,27,9.2,27z"></path><path d="M2.6,23.9l-1.9,1.9c-0.3,0.3-0.3,0.8,0,1.1C0.9,27,1.1,27,1.3,27s0.4-0.1,0.5-0.2l1.9-1.9c0.3-0.3,0.3-0.8,0-1.1   C3.4,23.6,2.9,23.6,2.6,23.9z"></path><path d="M7.4,20.9c0.2,0,0.4-0.1,0.5-0.2l1.9-1.9c0.3-0.3,0.3-0.8,0-1.1c-0.3-0.3-0.8-0.3-1.1,0l-1.9,1.9c-0.3,0.3-0.3,0.8,0,1.1   C7,20.9,7.2,20.9,7.4,20.9z"></path><path d="M25.6,118.2c-0.3-0.3-0.8-0.3-1.1,0c-0.3,0.3-0.3,0.8,0,1.1l1.9,1.9c0.1,0.1,0.3,0.2,0.5,0.2c0.2,0,0.4-0.1,0.5-0.2   c0.3-0.3,0.3-0.8,0-1.1L25.6,118.2z"></path><path d="M31.7,124.3c-0.3-0.3-0.8-0.3-1.1,0c-0.3,0.3-0.3,0.8,0,1.1l1.9,1.9c0.1,0.1,0.3,0.2,0.5,0.2c0.2,0,0.4-0.1,0.5-0.2   c0.3-0.3,0.3-0.8,0-1.1L31.7,124.3z"></path><path d="M26.4,124.3l-1.9,1.9c-0.3,0.3-0.3,0.8,0,1.1c0.1,0.1,0.3,0.2,0.5,0.2c0.2,0,0.4-0.1,0.5-0.2l1.9-1.9   c0.3-0.3,0.3-0.8,0-1.1C27.2,124,26.7,124,26.4,124.3z"></path><path d="M32.5,118.2l-1.9,1.9c-0.3,0.3-0.3,0.8,0,1.1c0.1,0.1,0.3,0.2,0.5,0.2c0.2,0,0.4-0.1,0.5-0.2l1.9-1.9   c0.3-0.3,0.3-0.8,0-1.1C33.3,117.9,32.8,117.9,32.5,118.2z"></path><path d="M127.5,113.1c0,0,0-0.1,0-0.1V45.5c0-0.2,0-0.4-0.2-0.6c-0.1-0.1-0.2-0.2-0.3-0.2c0,0,0,0,0,0c-0.1,0-0.2,0-0.2,0   c0,0,0,0,0,0c0,0,0,0,0,0h-42l0-30.9c0-7.3-5.9-13.3-13.2-13.3c-7.3,0-13.2,6-13.2,13.3v36.8c0,2.4,0.9,4.7,2.6,6.4   c1.7,1.7,4,2.6,6.4,2.6c2.4,0,4.7-0.9,6.4-2.6c1.7-1.7,2.6-4,2.6-6.4V14.9c0-0.4-0.3-0.8-0.8-0.8c-0.4,0-0.8,0.3-0.8,0.8v35.6   c0,2-0.8,3.9-2.2,5.3c-1.4,1.4-3.3,2.2-5.3,2.2c-2,0-3.9-0.8-5.3-2.2c-1.4-1.4-2.2-3.3-2.2-5.3V13.8C59.7,7.3,65,2,71.4,2   c6.5,0,11.7,5.3,11.7,11.8l0,36.8c0,4.3-1.7,8.3-4.7,11.3c-3,3-7,4.7-11.3,4.7c-4.3,0-8.3-1.7-11.3-4.7c-3-3-4.7-7-4.7-11.3V14.9   c0-0.4-0.3-0.8-0.8-0.8c-0.4,0-0.8,0.3-0.8,0.8v29.7h-42c0,0,0,0,0,0c0,0,0,0,0,0c-0.1,0-0.2,0-0.2,0c0,0,0,0,0,0   c-0.1,0-0.2,0.1-0.3,0.2c-0.2,0.2-0.2,0.4-0.2,0.6V113c0,0,0,0.1,0,0.1c0,0.1,0,0.1,0,0.2c0,0.1,0.1,0.1,0.1,0.1c0,0,0,0.1,0.1,0.1   c0,0,0,0,0,0c0.1,0.1,0.1,0.1,0.2,0.1c0,0,0,0,0,0c0.1,0,0.2,0.1,0.3,0.1h119.1c0.1,0,0.2,0,0.3-0.1c0,0,0,0,0.1,0   c0.1,0,0.1-0.1,0.2-0.1c0,0,0,0,0,0c0,0,0-0.1,0.1-0.1c0,0,0.1-0.1,0.1-0.1C127.5,113.2,127.5,113.2,127.5,113.1z M8.4,47.1   l36.4,31.5L8.4,111.3V47.1z M46,79.5l18,15.6c0.9,0.8,2.1,1.2,3.2,1.2c1.1,0,2.3-0.4,3.2-1.2l2.1-1.8l3.3,8.5   c0.1,0.3,0.4,0.5,0.7,0.5c0.3,0,0.6-0.2,0.7-0.4l2.6-5.4L93,109.5c0.1,0.1,0.3,0.2,0.5,0.2s0.4-0.1,0.5-0.2l5.8-5.8   c0.1-0.1,0.2-0.3,0.2-0.5c0-0.2-0.1-0.4-0.2-0.5L86.7,89.6l4.8-2.3c0.3-0.1,0.4-0.4,0.4-0.7V86c0-0.3-0.2-0.6-0.5-0.7l-6.7-2.6   l3.7-3.2l36.3,32.7H9.6L46,79.5z M89.9,86.3l-4.8,2.4c-0.2,0.1-0.4,0.3-0.4,0.6c0,0.2,0,0.5,0.2,0.7l13.3,13.3l-4.7,4.7L80.2,94.6   c-0.1-0.1-0.3-0.2-0.5-0.2c0,0-0.1,0-0.1,0c-0.2,0-0.4,0.2-0.6,0.4l-2.4,4.8l-8.5-21.8L89.9,86.3z M89.6,78.5L126,47.1v64.3   L89.6,78.5z M54.8,63c3.3,3.3,7.7,5.1,12.4,5.1c4.7,0,9.1-1.8,12.4-5.1c3.3-3.3,5.1-7.7,5.1-12.4l0-4.4h40L83.2,82.1l-16.1-6.3   c-0.3-0.1-0.6,0-0.8,0.2c-0.2,0.2-0.3,0.5-0.2,0.8l5.9,15L69.4,94c-1.3,1.1-3.2,1.1-4.4,0L9.7,46.2h40v4.4   C49.7,55.3,51.5,59.7,54.8,63z"></path></g></svg>