<svg fill="#FFFFFF" xmlns="http://www.w3.org/2000/svg" xmlns:xlink="http://www.w3.org/1999/xlink" version="1.1" x="0px" y="0px" viewBox="0 0 75 75" style="enable-background:new 0 0 75 75;" xml:space="preserve"><style type="text/css">
	.st0{fill:#FFFFFF;}
	.st1{stroke:#FFFFFF;stroke-width:1.5;stroke-miterlimit:10;}
	.st2{fill:none;}
</style><g><polygon class="st2" points="16.9,22.9 37.4,42.3 57.9,22.9  "></polygon><path d="M59.8,21.4H15c-0.4,0-0.8,0.3-0.8,0.8v16.5c0,0.4,0.3,0.8,0.8,0.8s0.8-0.3,0.8-0.8V23.9l14,13.3l-3.3,3.7H12.2   c-0.4,0-0.8,0.3-0.8,0.8s0.3,0.8,0.8,0.8h14.6c0.2,0,0.4-0.1,0.6-0.3l3.4-3.9l6,5.7c0.1,0.1,0.3,0.2,0.5,0.2s0.4-0.1,0.5-0.2   l5.7-5.4l11.2,10.6c0.1,0.1,0.3,0.2,0.5,0.2c0.2,0,0.4-0.1,0.5-0.2c0.3-0.3,0.3-0.8,0-1.1L44.7,37.5L59,23.9v28.3H15.8v-2.7h8   c0.4,0,0.8-0.3,0.8-0.8s-0.3-0.8-0.8-0.8h-8.5c0,0-0.1,0-0.1,0c0,0-0.1,0-0.1,0c-0.4,0-0.8,0.3-0.8,0.8v4.2c0,0.4,0.3,0.8,0.8,0.8   h44.8c0.4,0,0.8-0.3,0.8-0.8V22.1C60.5,21.7,60.2,21.4,59.8,21.4z M37.4,42.3L16.9,22.9h41L37.4,42.3z"></path><path d="M29.2,46.7c-0.2,0.3-0.2,0.8,0.2,1c0.1,0.1,0.3,0.1,0.4,0.1c0.2,0,0.5-0.1,0.6-0.3l1.5-2.1c0.2-0.3,0.2-0.6,0-0.9l-1.5-1.9   c-0.3-0.3-0.7-0.4-1.1-0.1c-0.3,0.3-0.4,0.7-0.1,1.1l0.6,0.8c0,0,0,0-0.1,0H9.2c-0.4,0-0.8,0.3-0.8,0.8s0.3,0.8,0.8,0.8h20.6   L29.2,46.7z"></path></g></svg>