<svg fill="#FFFFFF" xmlns="http://www.w3.org/2000/svg" xmlns:xlink="http://www.w3.org/1999/xlink" version="1.1" x="0px" y="0px" viewBox="206 206 100 100" enable-background="new 206 206 100 100" xml:space="preserve"><g><path d="M292.386,285.707h-2.506c0.198-0.437,0.313-0.92,0.313-1.431v-41.904c0-1.917-1.56-3.475-3.476-3.475h-8.943v-12.265h7.496   l0,0v-1.022c0-4.695-3.821-8.516-8.518-8.516h-34.613c-4.697,0-8.518,3.82-8.518,8.516v13.287h-8.432   c-1.917,0-3.475,1.559-3.475,3.475v41.904c0,0.511,0.113,0.994,0.312,1.431h-2.411c-1.917,0-3.475,1.559-3.475,3.476v2.248   c0,1.916,1.559,3.476,3.475,3.476h72.771c1.916,0,3.475-1.56,3.475-3.476v-2.248C295.861,287.265,294.302,285.707,292.386,285.707z    M277.774,245.949h5.366v34.75h-5.366V245.949z M276.752,219.138c3.222,0,5.901,2.365,6.394,5.45h-6.684h-25.868   c-0.261-2.173-1.346-4.095-2.929-5.45H276.752z M242.139,219.138c3.568,0,6.472,2.903,6.472,6.472v1.022h27.119v54.067h-40.064   V225.61C235.665,222.041,238.569,219.138,242.139,219.138z M233.621,280.699h-4.855v-34.75h4.855V280.699z M223.758,284.276   v-41.904c0-0.789,0.642-1.431,1.431-1.431h8.432v2.964h-6.899v38.838h6.899h1.022h42.109h1.021h7.41v-38.838h-7.41v-2.964h8.943   c0.789,0,1.431,0.642,1.431,1.431v41.904c0,0.789-0.642,1.431-1.431,1.431h-22.025c-0.02,0-0.039,0.005-0.059,0.006   c-0.036,0.002-0.072,0.005-0.109,0.012c-0.031,0.005-0.062,0.012-0.093,0.021c-0.033,0.009-0.065,0.018-0.098,0.03   c-0.03,0.012-0.059,0.024-0.088,0.038c-0.03,0.015-0.061,0.031-0.09,0.049c-0.027,0.018-0.053,0.036-0.079,0.056   s-0.052,0.04-0.077,0.063c-0.025,0.024-0.05,0.05-0.073,0.077c-0.014,0.016-0.028,0.027-0.041,0.044l-2.156,2.772h-12.062   l-2.156-2.772c-0.012-0.017-0.028-0.028-0.041-0.043c-0.024-0.027-0.048-0.054-0.075-0.079c-0.024-0.022-0.049-0.042-0.076-0.063   c-0.026-0.02-0.052-0.039-0.081-0.056c-0.029-0.019-0.058-0.033-0.088-0.048c-0.029-0.015-0.059-0.028-0.089-0.039   c-0.032-0.013-0.063-0.021-0.096-0.03c-0.031-0.009-0.062-0.016-0.094-0.021c-0.036-0.006-0.072-0.009-0.109-0.011   c-0.02-0.001-0.039-0.006-0.059-0.006h-21.514C224.4,285.707,223.758,285.065,223.758,284.276z M293.817,291.43   c0,0.789-0.643,1.431-1.431,1.431h-4.442v-1.124H285.9v1.124h-1.636v-1.124h-2.044v1.124h-1.635v-1.124h-2.045v1.124h-52.022   v-1.124h-2.044v1.124h-4.859c-0.789,0-1.431-0.642-1.431-1.431v-2.248c0-0.789,0.642-1.432,1.431-1.432h26.589l2.463,3.169h14.062   l2.463-3.169h27.194c0.788,0,1.431,0.643,1.431,1.432V291.43z"></path><path d="M242.589,238.29c2.292,0,4.158-1.864,4.158-4.156c0-2.292-1.865-4.158-4.158-4.158c-2.292,0-4.156,1.865-4.156,4.158   C238.433,236.426,240.297,238.29,242.589,238.29z M242.589,232.02c1.166,0,2.114,0.948,2.114,2.114   c0,1.164-0.948,2.111-2.114,2.111c-1.165,0-2.111-0.947-2.111-2.111C240.477,232.969,241.424,232.02,242.589,232.02z"></path><path d="M248.772,235.156h23.167c0.565,0,1.022-0.458,1.022-1.022c0-0.564-0.457-1.022-1.022-1.022h-23.167   c-0.564,0-1.022,0.458-1.022,1.022C247.75,234.698,248.208,235.156,248.772,235.156z"></path><path d="M242.589,250.344c2.292,0,4.158-1.864,4.158-4.155c0-2.292-1.865-4.156-4.158-4.156c-2.292,0-4.156,1.864-4.156,4.156   C238.433,248.479,240.297,250.344,242.589,250.344z M242.589,244.076c1.166,0,2.114,0.947,2.114,2.112   c0,1.164-0.948,2.111-2.114,2.111c-1.165,0-2.111-0.947-2.111-2.111C240.477,245.024,241.424,244.076,242.589,244.076z"></path><path d="M248.772,247.21h23.167c0.565,0,1.022-0.458,1.022-1.022s-0.457-1.022-1.022-1.022h-23.167   c-0.564,0-1.022,0.458-1.022,1.022S248.208,247.21,248.772,247.21z"></path><path d="M242.589,262.4c2.292,0,4.158-1.864,4.158-4.155c0-2.293-1.865-4.158-4.158-4.158c-2.292,0-4.156,1.865-4.156,4.158   C238.433,260.536,240.297,262.4,242.589,262.4z M242.589,256.131c1.166,0,2.114,0.948,2.114,2.114c0,1.164-0.948,2.111-2.114,2.111   c-1.165,0-2.111-0.947-2.111-2.111C240.477,257.079,241.424,256.131,242.589,256.131z"></path><path d="M248.772,259.266h23.167c0.565,0,1.022-0.458,1.022-1.022s-0.457-1.021-1.022-1.021h-23.167   c-0.564,0-1.022,0.457-1.022,1.021S248.208,259.266,248.772,259.266z"></path><path d="M242.589,274.454c2.292,0,4.158-1.864,4.158-4.155c0-2.292-1.865-4.156-4.158-4.156c-2.292,0-4.156,1.864-4.156,4.156   C238.433,272.59,240.297,274.454,242.589,274.454z M242.589,268.187c1.166,0,2.114,0.947,2.114,2.111s-0.948,2.111-2.114,2.111   c-1.165,0-2.111-0.947-2.111-2.111S241.424,268.187,242.589,268.187z"></path><path d="M267.207,266.256l-13.173-3.53c-0.353-0.095-0.729,0.006-0.987,0.265c-0.258,0.258-0.359,0.635-0.264,0.987l3.53,13.172   c0.117,0.438,0.509,0.746,0.963,0.757c0.008,0.001,0.016,0.001,0.023,0.001c0.444,0,0.838-0.287,0.974-0.711l1.824-5.711   l4.834,4.834c0.199,0.2,0.461,0.3,0.723,0.3s0.523-0.1,0.723-0.3c0.399-0.398,0.399-1.046,0-1.445l-4.834-4.833l5.71-1.824   c0.432-0.139,0.722-0.545,0.711-0.998S267.645,266.373,267.207,266.256z M259.323,268.603c-0.017,0.006-0.032,0.013-0.049,0.019   c-0.014,0.006-0.027,0.011-0.041,0.017c-0.052,0.022-0.102,0.048-0.148,0.078c-0.011,0.007-0.021,0.015-0.031,0.021   c-0.05,0.035-0.098,0.072-0.141,0.115l-0.001,0.001c-0.001,0-0.001,0.001-0.001,0.001c-0.043,0.043-0.081,0.092-0.116,0.142   c-0.007,0.011-0.014,0.02-0.021,0.03c-0.03,0.047-0.057,0.097-0.079,0.149c-0.006,0.014-0.01,0.026-0.016,0.04   c-0.006,0.017-0.014,0.032-0.019,0.05l-1.275,3.99l-2.17-8.099l8.099,2.171L259.323,268.603z"></path></g></svg>