<svg fill="#FFFFFF" xmlns="http://www.w3.org/2000/svg" xmlns:xlink="http://www.w3.org/1999/xlink" version="1.1" x="0px" y="0px" viewBox="0 0 64 88" style="enable-background:new 0 0 64 88;" xml:space="preserve"><path d="M32,44.977c8.271,0,15-6.729,15-15.001c0-8.271-6.729-14.999-15-14.999s-15,6.729-15,14.999  C17,38.247,23.729,44.977,32,44.977z M32,42.977c-3.181,0-6.095-1.152-8.357-3.057c0.146-0.008,0.289-0.018,0.445-0.018  c1.34,0,2.489-0.224,3.42-0.627c0.99,0.902,2.654,1.445,4.413,1.445c0.196,0,0.394-0.007,0.591-0.021  c1.484-0.103,2.705-0.603,3.414-1.379c0.994,0.513,2.208,0.619,3.261,0.619c0.378,0,0.719,0.037,1.05,0.084  C37.993,41.868,35.124,42.977,32,42.977z M26.209,27.098c0.388-2.945,2.036-5.663,5.741-5.663c1.073,0,1.973,0.228,2.721,0.623  C34.524,22.596,33.089,27.022,26.209,27.098z M35.313,22.473c1.633,1.226,2.356,3.371,2.459,5.511  c-0.994-0.432-3.147-1.626-3.147-3.885c0-0.065-0.021-0.124-0.051-0.177C34.975,23.312,35.202,22.784,35.313,22.473z M33.935,24.755  c0.392,2.527,2.979,3.708,3.838,4.034c-0.147,3.919-3.577,6.839-5.823,6.839c-2.296,0-5.837-3.047-5.837-7.096  c0-0.229,0.008-0.458,0.022-0.688C30.298,27.817,32.643,26.241,33.935,24.755z M31.951,36.369c0.659,0,1.351-0.188,2.028-0.513  c0.061,1.48,0.568,2.435,1.301,3.041c-0.592,0.587-1.581,0.977-2.818,1.063c-1.634,0.106-3.272-0.311-4.251-1.063  c1.099-0.686,1.749-1.702,1.855-2.974C30.697,36.207,31.337,36.369,31.951,36.369z M32,16.977c7.168,0,13,5.831,13,12.999  c0,3.707-1.567,7.047-4.064,9.418c-0.532-0.126-1.107-0.195-1.749-0.195c-3.183,0-4.481-1.054-4.481-3.637  c0-0.035-0.011-0.067-0.02-0.099c2.075-1.331,3.843-3.982,3.843-6.931c0-4.762-2.583-7.838-6.579-7.838s-6.579,3.076-6.579,7.838  c0,3.021,1.854,5.724,3.993,7.022c0,0.003-0.002,0.006-0.002,0.009c0,3.339-4.038,3.599-5.275,3.599c-0.43,0-0.817,0.035-1.182,0.09  C20.499,36.889,19,33.606,19,29.976C19,22.808,24.832,16.977,32,16.977z"></path><path d="M63,0H1C0.448,0,0,0.448,0,1v86c0,0.552,0.448,1,1,1h62c0.552,0,1-0.448,1-1V1C64,0.448,63.552,0,63,0z M62,86H2V2h60V86z"></path><rect x="16" y="51" width="32" height="2"></rect><rect x="20" y="55.5" width="24" height="1"></rect><rect x="12" y="63.5" width="40" height="1"></rect><rect x="12" y="67.5" width="40" height="1"></rect><rect x="12" y="71.5" width="40" height="1"></rect></svg>