<svg fill="#FFFFFF" xmlns="http://www.w3.org/2000/svg" xmlns:xlink="http://www.w3.org/1999/xlink" version="1.1" x="0px" y="0px" viewBox="0 0 128 128" enable-background="new 0 0 128 128" xml:space="preserve"><g><path d="M119,90.8c-0.4,0-0.8,0.3-0.8,0.8v13c0,0.4,0.3,0.8,0.8,0.8c0.4,0,0.8-0.3,0.8-0.8v-13C119.8,91.1,119.5,90.8,119,90.8z"></path><path d="M119,108c-0.4,0-0.8,0.3-0.8,0.8v4.2c0,0.4,0.3,0.8,0.8,0.8c0.4,0,0.8-0.3,0.8-0.8v-4.2C119.8,108.3,119.5,108,119,108z"></path><path d="M9.7,41.8c0.4,0,0.8-0.3,0.8-0.8v-13c0-0.4-0.3-0.8-0.8-0.8c-0.4,0-0.8,0.3-0.8,0.8v13C8.9,41.5,9.3,41.8,9.7,41.8z"></path><path d="M9.7,50.3c0.4,0,0.8-0.3,0.8-0.8v-4.2c0-0.4-0.3-0.8-0.8-0.8c-0.4,0-0.8,0.3-0.8,0.8v4.2C8.9,49.9,9.3,50.3,9.7,50.3z"></path><path d="M113.5,5.1c0.1,0.1,0.3,0.2,0.5,0.2c0.2,0,0.4-0.1,0.5-0.2c0.3-0.3,0.3-0.8,0-1.1l-1.8-1.8c-0.3-0.3-0.8-0.3-1.1,0   c-0.3,0.3-0.3,0.8,0,1.1L113.5,5.1z"></path><path d="M119.3,10.9c0.1,0.1,0.3,0.2,0.5,0.2c0.2,0,0.4-0.1,0.5-0.2c0.3-0.3,0.3-0.8,0-1.1L118.6,8c-0.3-0.3-0.8-0.3-1.1,0   c-0.3,0.3-0.3,0.8,0,1.1L119.3,10.9z"></path><path d="M112.3,11.1c0.2,0,0.4-0.1,0.5-0.2l1.8-1.8c0.3-0.3,0.3-0.8,0-1.1c-0.3-0.3-0.8-0.3-1.1,0l-1.8,1.8c-0.3,0.3-0.3,0.8,0,1.1   C111.9,11,112.1,11.1,112.3,11.1z"></path><path d="M118,5.3c0.2,0,0.4-0.1,0.5-0.2l1.8-1.8c0.3-0.3,0.3-0.8,0-1.1c-0.3-0.3-0.8-0.3-1.1,0L117.5,4c-0.3,0.3-0.3,0.8,0,1.1   C117.6,5.2,117.8,5.3,118,5.3z"></path><path d="M2.7,108.9c-0.3-0.3-0.8-0.3-1.1,0c-0.3,0.3-0.3,0.8,0,1.1l1.8,1.8c0.1,0.1,0.3,0.2,0.5,0.2c0.2,0,0.4-0.1,0.5-0.2   c0.3-0.3,0.3-0.8,0-1.1L2.7,108.9z"></path><path d="M8.5,114.7c-0.3-0.3-0.8-0.3-1.1,0c-0.3,0.3-0.3,0.8,0,1.1l1.8,1.8c0.1,0.1,0.3,0.2,0.5,0.2c0.2,0,0.4-0.1,0.5-0.2   c0.3-0.3,0.3-0.8,0-1.1L8.5,114.7z"></path><path d="M3.4,114.7l-1.8,1.8c-0.3,0.3-0.3,0.8,0,1.1c0.1,0.1,0.3,0.2,0.5,0.2c0.2,0,0.4-0.1,0.5-0.2l1.8-1.8c0.3-0.3,0.3-0.8,0-1.1   C4.2,114.4,3.7,114.4,3.4,114.7z"></path><path d="M9.2,108.9l-1.8,1.8c-0.3,0.3-0.3,0.8,0,1.1c0.1,0.1,0.3,0.2,0.5,0.2c0.2,0,0.4-0.1,0.5-0.2l1.8-1.8c0.3-0.3,0.3-0.8,0-1.1   C9.9,108.7,9.5,108.7,9.2,108.9z"></path><path d="M121.4,60.4c-2.1,0-3.8,1.7-3.8,3.8c0,2.1,1.7,3.8,3.8,3.8c2.1,0,3.8-1.7,3.8-3.8C125.2,62.1,123.5,60.4,121.4,60.4z    M121.4,66.4c-1.3,0-2.3-1-2.3-2.3c0-1.3,1-2.3,2.3-2.3c1.3,0,2.3,1,2.3,2.3C123.7,65.4,122.7,66.4,121.4,66.4z"></path><path d="M7.9,77c-2.1,0-3.8,1.7-3.8,3.8c0,2.1,1.7,3.8,3.8,3.8c2.1,0,3.8-1.7,3.8-3.8C11.7,78.7,10,77,7.9,77z M7.9,83   c-1.3,0-2.3-1-2.3-2.3c0-1.3,1-2.3,2.3-2.3c1.3,0,2.3,1,2.3,2.3C10.2,82,9.2,83,7.9,83z"></path><path d="M73.3,12.7c2.1,0,3.8-1.7,3.8-3.8c0-2.1-1.7-3.8-3.8-3.8c-2.1,0-3.8,1.7-3.8,3.8C69.5,11,71.2,12.7,73.3,12.7z M73.3,6.6   c1.3,0,2.3,1,2.3,2.3c0,1.3-1,2.3-2.3,2.3c-1.3,0-2.3-1-2.3-2.3C71,7.6,72,6.6,73.3,6.6z"></path><path d="M101.9,38.8c0,0.4,0.3,0.8,0.8,0.8h14.1c0.4,0,0.8-0.3,0.8-0.8s-0.3-0.8-0.8-0.8h-14.1C102.2,38.1,101.9,38.4,101.9,38.8z"></path><path d="M121.3,39.6h4.5c0.4,0,0.8-0.3,0.8-0.8s-0.3-0.8-0.8-0.8h-4.5c-0.4,0-0.8,0.3-0.8,0.8S120.9,39.6,121.3,39.6z"></path><path d="M125.8,42.9H116c-0.4,0-0.8,0.3-0.8,0.8s0.3,0.8,0.8,0.8h9.8c0.4,0,0.8-0.3,0.8-0.8S126.3,42.9,125.8,42.9z"></path><path d="M111.8,42.9h-3.2c-0.4,0-0.8,0.3-0.8,0.8s0.3,0.8,0.8,0.8h3.2c0.4,0,0.8-0.3,0.8-0.8S112.2,42.9,111.8,42.9z"></path><path d="M24.1,2h14.1c0.4,0,0.8-0.3,0.8-0.8s-0.3-0.8-0.8-0.8H24.1c-0.4,0-0.8,0.3-0.8,0.8S23.7,2,24.1,2z"></path><path d="M42.8,2h4.5c0.4,0,0.8-0.3,0.8-0.8s-0.3-0.8-0.8-0.8h-4.5c-0.4,0-0.8,0.3-0.8,0.8S42.4,2,42.8,2z"></path><path d="M47.3,5.3h-9.8c-0.4,0-0.8,0.3-0.8,0.8s0.3,0.8,0.8,0.8h9.8c0.4,0,0.8-0.3,0.8-0.8S47.8,5.3,47.3,5.3z"></path><path d="M30.2,5.3c-0.4,0-0.8,0.3-0.8,0.8s0.3,0.8,0.8,0.8h3.2c0.4,0,0.8-0.3,0.8-0.8s-0.3-0.8-0.8-0.8H30.2z"></path><path d="M112.2,103.9C112.2,103.9,112.2,103.9,112.2,103.9l0-41.6c0-0.1,0-0.1,0-0.2c0-0.2,0-0.3,0-0.5L107.4,51   c-0.2-0.5-1.1-0.5-1.4,0l-4.8,10.6c-0.1,0.2-0.1,0.3,0,0.5c0,0.1,0,0.1,0,0.2v57.1c0,2.4,1.9,4.3,4.3,4.3h2.4   c2.4,0,4.3-1.9,4.3-4.3v-6.6c0,0,0,0,0,0c0,0,0,0,0,0v-4.5c0,0,0,0,0,0c0,0,0,0,0,0L112.2,103.9   C112.2,103.9,112.2,103.9,112.2,103.9z M106.7,53.2l3.7,8.4H103L106.7,53.2z M110.7,119.4c0,1.5-1.2,2.8-2.8,2.8h-2.4   c-1.5,0-2.8-1.2-2.8-2.8v-5.9h8V119.4z M110.7,112.1h-8v-3h8V112.1z M110.7,107.6h-8v-3h8V107.6z M110.7,103.1h-8V63h8V103.1z"></path><path d="M106.7,98c0.4,0,0.8-0.3,0.8-0.8v-4c0-0.4-0.3-0.8-0.8-0.8c-0.4,0-0.8,0.3-0.8,0.8v4C106,97.7,106.3,98,106.7,98z"></path><path d="M106.7,77.9c0.4,0,0.8-0.3,0.8-0.8v-4c0-0.4-0.3-0.8-0.8-0.8c-0.4,0-0.8,0.3-0.8,0.8v4C106,77.6,106.3,77.9,106.7,77.9z"></path><path d="M106.7,88c0.4,0,0.8-0.3,0.8-0.8v-4c0-0.4-0.3-0.8-0.8-0.8c-0.4,0-0.8,0.3-0.8,0.8v4C106,87.6,106.3,88,106.7,88z"></path><path d="M111.5,27.9c0,0,0-0.1,0-0.1c0.1-0.1,0.2-0.2,0.3-0.4c0.3-0.9,0.4-1.9,0.4-2.9c0-5.3-4.3-9.6-9.6-9.6h-8.7c0,0,0,0,0,0   H27.3c0,0,0,0,0,0h-1.1c-0.1,0-0.1,0-0.2,0c-5.7,0-10.4,4.7-10.4,10.4v0v0V123c0,0.4,0.3,0.8,0.8,0.8h77.6c0.4,0,0.8-0.3,0.8-0.8   V28.7h16.1C111.2,28.7,111.5,28.3,111.5,27.9z M93.2,122.2H17.1V25.4l0,0l0,0c0-4.9,4-8.9,8.9-8.9c4.9,0,8.9,4,8.9,8.9   c0,0.7-0.1,1.7-0.3,2.3c-0.1,0.4,0.2,0.8,0.6,0.9c0.1,0,0.1,0,0.2,0c0,0,0,0,0,0c0.1,0,0.2,0.1,0.3,0.1h57.4V122.2z M110.3,27   c0,0.1,0,0.1,0,0.2h-74c0.1-0.6,0.2-1.2,0.2-1.8c0-3.8-2.1-7.1-5.1-9h71.3c4.5,0,8.1,3.6,8.1,8.1C110.7,25.4,110.6,26.2,110.3,27z"></path><path d="M30.9,56.3c0,0,0,0.1,0,0.1c0,0,0.1,0.1,0.1,0.1c0,0,0.1,0.1,0.1,0.1c0,0,0.1,0.1,0.1,0.1c0,0,0.1,0.1,0.1,0.1c0,0,0,0,0,0   c0.1,0,0.1,0,0.2,0c0,0,0,0,0,0h14.2c0,0,0,0,0,0c0.1,0,0.1,0,0.2,0c0,0,0,0,0,0c0.1,0,0.1,0,0.1-0.1c0,0,0.1,0,0.1-0.1   c0,0,0.1-0.1,0.1-0.1c0,0,0.1-0.1,0.1-0.1c0,0,0-0.1,0-0.1c0-0.1,0-0.1,0-0.2c0,0,0,0,0,0c0,0,0-0.1,0-0.1c0,0,0-0.1,0-0.1   c-0.2-0.6-0.4-1.3-0.6-1.8c-0.5-1.7-2.1-2.7-4-2.5c-0.2,0-0.3,0-0.5,0c0-0.1,0.1-0.2,0.1-0.3v-1c0.4-0.5,0.8-1,1.1-1.7   c0.5-0.3,0.9-1,0.9-1.9c0-0.7-0.2-1.2-0.5-1.6c0-0.4,0.1-0.7,0.1-1.1c0.1-2.3-0.6-2.7-1.8-3.1L41,40.8c-0.9-0.3-1.7-0.3-2.3-0.3   c-0.6,0-1.5,0.1-2.3,0.3l-0.2,0.1c-1.1,0.4-1.9,0.8-1.8,3.1c0,0.3,0.1,0.7,0.1,1.1C34.1,45.4,34,46,34,46.6c0,0.9,0.3,1.7,0.9,1.9   c0.3,0.7,0.6,1.2,1.1,1.7v1c0,0.1,0,0.2,0.1,0.3c-0.2,0-0.3,0-0.5,0c-1.9-0.2-3.5,0.8-4,2.5c-0.2,0.6-0.4,1.2-0.6,1.9   c0,0,0,0.1,0,0.1c0,0,0,0.1,0,0.1c0,0,0,0,0,0C30.9,56.2,30.9,56.2,30.9,56.3z M35.7,47.2c-0.1,0-0.1,0-0.2-0.1   c0-0.1-0.1-0.3-0.1-0.5c0-0.3,0.1-0.5,0.1-0.6c0.2-0.1,0.4-0.4,0.4-0.6c0-0.1,0-0.2,0-0.3c-0.1-0.4-0.1-0.9-0.1-1.3   c-0.1-1.3,0-1.3,0.7-1.6l0.2-0.1c0.5-0.2,1.2-0.3,1.9-0.3c0.7,0,1.3,0.1,1.9,0.3l0.2,0.1c0.7,0.2,0.8,0.3,0.7,1.6   c0,0.4-0.1,0.8-0.1,1.3c0,0.1,0,0.2,0,0.3c0,0.2,0.2,0.4,0.4,0.5c0,0.1,0.1,0.3,0.1,0.6c0,0.2,0,0.4-0.1,0.5c-0.1,0-0.1,0-0.2,0.1   c-0.2,0.1-0.3,0.3-0.4,0.5c-0.4,1.4-1.4,2.3-2.6,2.3c-1.1,0-2.1-0.9-2.6-2.3C36.1,47.4,35.9,47.3,35.7,47.2z M32.9,54.4   c0.3-1,1.2-1.6,2.5-1.5c0.4,0,0.7,0,1.1,0.1c0.4,0,0.8-0.3,0.8-0.7c0-0.2-0.1-0.3-0.1-0.5c0.2-0.1,0.4-0.4,0.4-0.6v0   c0.4,0.1,0.8,0.2,1.3,0.2c0.4,0,0.9-0.1,1.3-0.2v0c0,0.3,0.1,0.5,0.3,0.6c-0.1,0.1-0.2,0.3-0.2,0.5c0,0.4,0.4,0.7,0.8,0.7   c0.4,0,0.7,0,1.1-0.1c1.2-0.1,2.2,0.5,2.5,1.5c0.1,0.3,0.2,0.6,0.3,0.9H32.6C32.7,55,32.8,54.7,32.9,54.4z"></path><path d="M24.1,50.3c0,8.1,6.6,14.6,14.6,14.6c8.1,0,14.6-6.6,14.6-14.6c0-8.1-6.6-14.6-14.6-14.6C30.6,35.7,24.1,42.2,24.1,50.3z    M38.7,37.2c7.2,0,13.1,5.9,13.1,13.1c0,7.2-5.9,13.1-13.1,13.1s-13.1-5.9-13.1-13.1C25.6,43,31.5,37.2,38.7,37.2z"></path><path d="M58.5,44.5H78c0.4,0,0.8-0.3,0.8-0.8c0-0.4-0.3-0.8-0.8-0.8H58.5c-0.4,0-0.8,0.3-0.8,0.8C57.8,44.1,58.1,44.5,58.5,44.5z"></path><path d="M58.5,49.3h24.9c0.4,0,0.8-0.3,0.8-0.8c0-0.4-0.3-0.8-0.8-0.8H58.5c-0.4,0-0.8,0.3-0.8,0.8C57.8,48.9,58.1,49.3,58.5,49.3z   "></path><path d="M58.5,54.1h28.3c0.4,0,0.8-0.3,0.8-0.8s-0.3-0.8-0.8-0.8H58.5c-0.4,0-0.8,0.3-0.8,0.8S58.1,54.1,58.5,54.1z"></path><path d="M24.8,76.1h26.4c0.4,0,0.8-0.3,0.8-0.8c0-0.4-0.3-0.8-0.8-0.8H24.8c-0.4,0-0.8,0.3-0.8,0.8C24.1,75.8,24.4,76.1,24.8,76.1z   "></path><path d="M58.5,76.1h26.3c0.4,0,0.8-0.3,0.8-0.8c0-0.4-0.3-0.8-0.8-0.8H58.5c-0.4,0-0.8,0.3-0.8,0.8C57.8,75.8,58.1,76.1,58.5,76.1z   "></path><path d="M24.8,81.5h38.7c0.4,0,0.8-0.3,0.8-0.8c0-0.4-0.3-0.8-0.8-0.8H24.8c-0.4,0-0.8,0.3-0.8,0.8C24.1,81.2,24.4,81.5,24.8,81.5z   "></path><path d="M84.8,80H70.2c-0.4,0-0.8,0.3-0.8,0.8c0,0.4,0.3,0.8,0.8,0.8h14.6c0.4,0,0.8-0.3,0.8-0.8C85.6,80.3,85.3,80,84.8,80z"></path><path d="M84.8,101.5H46.2c-0.4,0-0.8,0.3-0.8,0.8c0,0.4,0.3,0.8,0.8,0.8h38.7c0.4,0,0.8-0.3,0.8-0.8   C85.6,101.8,85.3,101.5,84.8,101.5z"></path><path d="M24.8,103h14.6c0.4,0,0.8-0.3,0.8-0.8c0-0.4-0.3-0.8-0.8-0.8H24.8c-0.4,0-0.8,0.3-0.8,0.8C24.1,102.7,24.4,103,24.8,103z"></path><path d="M84.8,85.4H67h-8.5H24.8c-0.4,0-0.8,0.3-0.8,0.8c0,0.4,0.3,0.8,0.8,0.8h33.7H67h17.8c0.4,0,0.8-0.3,0.8-0.8   C85.6,85.7,85.3,85.4,84.8,85.4z"></path><path d="M24.8,92.2h9.9c0.4,0,0.8-0.3,0.8-0.8c0-0.4-0.3-0.8-0.8-0.8h-9.9c-0.4,0-0.8,0.3-0.8,0.8C24.1,91.9,24.4,92.2,24.8,92.2z"></path><path d="M84.8,90.7H41.6c-0.4,0-0.8,0.3-0.8,0.8c0,0.4,0.3,0.8,0.8,0.8h43.2c0.4,0,0.8-0.3,0.8-0.8C85.6,91.1,85.3,90.7,84.8,90.7z   "></path><path d="M24.8,97.6H40c0.4,0,0.8-0.3,0.8-0.8c0-0.4-0.3-0.8-0.8-0.8H24.8c-0.4,0-0.8,0.3-0.8,0.8C24.1,97.3,24.4,97.6,24.8,97.6z"></path><path d="M62.7,97.6c0.4,0,0.8-0.3,0.8-0.8c0-0.4-0.3-0.8-0.8-0.8H47.5c-0.4,0-0.8,0.3-0.8,0.8c0,0.4,0.3,0.8,0.8,0.8H62.7z"></path><path d="M84.8,96.1H69c-0.4,0-0.8,0.3-0.8,0.8c0,0.4,0.3,0.8,0.8,0.8h15.9c0.4,0,0.8-0.3,0.8-0.8C85.6,96.5,85.3,96.1,84.8,96.1z"></path><path d="M84.8,106.9h-60c-0.4,0-0.8,0.3-0.8,0.8c0,0.4,0.3,0.8,0.8,0.8h60c0.4,0,0.8-0.3,0.8-0.8C85.6,107.2,85.3,106.9,84.8,106.9   z"></path><path d="M69.5,112.2H24.8c-0.4,0-0.8,0.3-0.8,0.8c0,0.4,0.3,0.8,0.8,0.8h44.7c0.4,0,0.8-0.3,0.8-0.8   C70.3,112.6,69.9,112.2,69.5,112.2z"></path><path d="M84.8,112.2h-9c-0.4,0-0.8,0.3-0.8,0.8c0,0.4,0.3,0.8,0.8,0.8h9c0.4,0,0.8-0.3,0.8-0.8C85.6,112.6,85.3,112.2,84.8,112.2z"></path><path d="M86.8,126H16.3c-0.4,0-0.8,0.3-0.8,0.8c0,0.4,0.3,0.8,0.8,0.8h70.5c0.4,0,0.8-0.3,0.8-0.8C87.6,126.3,87.2,126,86.8,126z"></path></g></svg>